  0
SECTION
  2
HEADER
  9
$ACADVER
  1
AC1014
  9
$HANDSEED
  5
FFFF
  9
$MEASUREMENT
 70
     1
  0
ENDSEC
  0
SECTION
  2
TABLES
  0
TABLE
  2
VPORT
  5
8
330
0
100
AcDbSymbolTable
 70
     4
  0
VPORT
  5
2E
330
8
100
AcDbSymbolTableRecord
100
AcDbViewportTableRecord
  2
*ACTIVE
 70
     0
 10
0.0
 20
0.0
 11
1.0
 21
1.0
 12
210.0
 22
148.5
 13
0.0
 23
0.0
 14
10.0
 24
10.0
 15
10.0
 25
10.0
 16
0.0
 26
0.0
 36
1.0
 17
0.0
 27
0.0
 37
0.0
 40
341.0
 41
1.24
 42
50.0
 43
0.0
 44
0.0
 50
0.0
 51
0.0
 71
     0
 72
   100
 73
     1
 74
     3
 75
     0
 76
     0
 77
     0
 78
     0
  0
ENDTAB
  0
TABLE
  2
LTYPE
  5
5
330
0
100
AcDbSymbolTable
 70
     1
  0
LTYPE
  5
14
330
5
100
AcDbSymbolTableRecord
100
AcDbLinetypeTableRecord
  2
BYBLOCK
 70
     0
  3

 72
    65
 73
     0
 40
0.0
  0
LTYPE
  5
15
330
5
100
AcDbSymbolTableRecord
100
AcDbLinetypeTableRecord
  2
BYLAYER
 70
     0
  3

 72
    65
 73
     0
 40
0.0
  0
LTYPE
  5
16
330
5
100
AcDbSymbolTableRecord
100
AcDbLinetypeTableRecord
  2
CONTINUOUS
 70
     0
  3
Solid line
 72
    65
 73
     0
 40
0.0
  0
ENDTAB
  0
TABLE
  2
LAYER
  5
2
100
AcDbSymbolTable
 70
4
  0
LAYER
  5
50
100
AcDbSymbolTableRecord
100
AcDbLayerTableRecord
  2
0
 70
0
  6
CONTINUOUS
  0
LAYER
  5
51
100
AcDbSymbolTableRecord
100
AcDbLayerTableRecord
  2
Frame
 70
0
  6
CONTINUOUS
  0
LAYER
  5
52
100
AcDbSymbolTableRecord
100
AcDbLayerTableRecord
  2
Cut
 70
0
  6
CONTINUOUS
  0
LAYER
  5
53
100
AcDbSymbolTableRecord
100
AcDbLayerTableRecord
  2
Etch
 70
0
  6
CONTINUOUS
  0
ENDTAB
  0
TABLE
  2
STYLE
  5
3
330
0
100
AcDbSymbolTable
 70
     1
  0
STYLE
  5
11
330
3
100
AcDbSymbolTableRecord
100
AcDbTextStyleTableRecord
  2
STANDARD
 70
     0
 40
0.0
 41
1.0
 50
0.0
 71
     0
 42
2.5
  3
txt
  4

  0
ENDTAB
  0
TABLE
  2
VIEW
  5
6
330
0
100
AcDbSymbolTable
 70
     0
  0
ENDTAB
  0
TABLE
  2
UCS
  5
7
330
0
100
AcDbSymbolTable
 70
     0
  0
ENDTAB
  0
TABLE
  2
APPID
  5
9
330
0
100
AcDbSymbolTable
 70
     2
  0
APPID
  5
12
330
9
100
AcDbSymbolTableRecord
100
AcDbRegAppTableRecord
  2
ACAD
 70
     0
  0
ENDTAB
  0
TABLE
  2
DIMSTYLE
  5
A
330
0
100
AcDbSymbolTable
 70
     1
  0
DIMSTYLE
105
27
330
A
100
AcDbSymbolTableRecord
100
AcDbDimStyleTableRecord
  2
ISO-25
 70
     0
  3

  4

  5

  6

  7

 40
1.0
 41
2.5
 42
0.625
 43
3.75
 44
1.25
 45
0.0
 46
0.0
 47
0.0
 48
0.0
140
2.5
141
2.5
142
0.0
143
0.03937007874016
144
1.0
145
0.0
146
1.0
147
0.625
 71
     0
 72
     0
 73
     0
 74
     0
 75
     0
 76
     0
 77
     1
 78
     8
170
     0
171
     3
172
     1
173
     0
174
     0
175
     0
176
     0
177
     0
178
     0
270
     2
271
     2
272
     2
273
     2
274
     3
340
11
275
     0
280
     0
281
     0
282
     0
283
     0
284
     8
285
     0
286
     0
287
     3
288
     0
  0
ENDTAB
  0
TABLE
  2
BLOCK_RECORD
  5
1
330
0
100
AcDbSymbolTable
 70
     1
  0
BLOCK_RECORD
  5
1F
330
1
100
AcDbSymbolTableRecord
100
AcDbBlockTableRecord
  2
*MODEL_SPACE
  0
BLOCK_RECORD
  5
1B
330
1
100
AcDbSymbolTableRecord
100
AcDbBlockTableRecord
  2
*PAPER_SPACE
  0
ENDTAB
  0
ENDSEC
  0
SECTION
  2
BLOCKS
  0
BLOCK
  5
20
330
1F
100
AcDbEntity
  8
0
100
AcDbBlockBegin
  2
*MODEL_SPACE
 70
     0
 10
0.0
 20
0.0
 30
0.0
  3
*MODEL_SPACE
  1

  0
ENDBLK
  5
21
330
1F
100
AcDbEntity
  8
0
100
AcDbBlockEnd
  0
BLOCK
  5
1C
330
1B
100
AcDbEntity
 67
     1
  8
0
100
AcDbBlockBegin
  2
*PAPER_SPACE
  1

  0
ENDBLK
  5
1D
330
1B
100
AcDbEntity
 67
     1
  8
0
100
AcDbBlockEnd
  0
ENDSEC
  0
SECTION
  2
ENTITIES
  0
LINE
  5
100
100
AcDbEntity
  8
Frame
 62
7
100
AcDbLine
 10
1.259852
 20
0.590548
 30
0.0
 11
1.259852
 21
0.000010
 31
0.0
  0
LINE
  5
101
100
AcDbEntity
  8
Frame
 62
7
100
AcDbLine
 10
1.259852
 20
0.000010
 30
0.0
 11
2.440951
 21
0.000010
 31
0.0
  0
LINE
  5
102
100
AcDbEntity
  8
Frame
 62
7
100
AcDbLine
 10
2.440951
 20
0.000010
 30
0.0
 11
2.440951
 21
0.590548
 31
0.0
  0
LINE
  5
103
100
AcDbEntity
  8
Frame
 62
7
100
AcDbLine
 10
2.440951
 20
0.590548
 30
0.0
 11
2.106293
 21
0.590548
 31
0.0
  0
LINE
  5
104
100
AcDbEntity
  8
Frame
 62
7
100
AcDbLine
 10
2.106293
 20
0.590548
 30
0.0
 11
2.106293
 21
0.196841
 31
0.0
  0
LINE
  5
105
100
AcDbEntity
  8
Frame
 62
7
100
AcDbLine
 10
2.106293
 20
0.196841
 30
0.0
 11
1.594488
 21
0.196841
 31
0.0
  0
LINE
  5
106
100
AcDbEntity
  8
Frame
 62
7
100
AcDbLine
 10
1.594488
 20
0.196841
 30
0.0
 11
1.594488
 21
0.590548
 31
0.0
  0
LINE
  5
107
100
AcDbEntity
  8
Frame
 62
7
100
AcDbLine
 10
1.594488
 20
0.590548
 30
0.0
 11
1.259852
 21
0.590548
 31
0.0
  0
LINE
  5
108
100
AcDbEntity
  8
Frame
 62
7
100
AcDbLine
 10
1.259852
 20
0.590548
 30
0.0
 11
1.259852
 21
0.590548
 31
0.0
  0
LINE
  5
109
100
AcDbEntity
  8
Frame
 62
7
100
AcDbLine
 10
0.000000
 20
0.590551
 30
0.0
 11
1.181102
 21
0.590551
 31
0.0
  0
LINE
  5
10a
100
AcDbEntity
  8
Frame
 62
7
100
AcDbLine
 10
1.181102
 20
0.590551
 30
0.0
 11
1.181102
 21
0.000000
 31
0.0
  0
LINE
  5
10b
100
AcDbEntity
  8
Frame
 62
7
100
AcDbLine
 10
1.181102
 20
0.000000
 30
0.0
 11
0.000000
 21
0.000000
 31
0.0
  0
LINE
  5
10c
100
AcDbEntity
  8
Frame
 62
7
100
AcDbLine
 10
0.000000
 20
0.000000
 30
0.0
 11
0.000000
 21
0.590551
 31
0.0
  0
LINE
  5
10d
100
AcDbEntity
  8
Frame
 62
7
100
AcDbLine
 10
0.000000
 20
1.259842
 30
0.0
 11
1.181102
 21
1.259842
 31
0.0
  0
LINE
  5
10e
100
AcDbEntity
  8
Frame
 62
7
100
AcDbLine
 10
1.181102
 20
1.259842
 30
0.0
 11
1.181102
 21
0.669291
 31
0.0
  0
LINE
  5
10f
100
AcDbEntity
  8
Frame
 62
7
100
AcDbLine
 10
1.181102
 20
0.669291
 30
0.0
 11
0.000000
 21
0.669291
 31
0.0
  0
LINE
  5
110
100
AcDbEntity
  8
Frame
 62
7
100
AcDbLine
 10
0.000000
 20
0.669291
 30
0.0
 11
0.000000
 21
1.259842
 31
0.0
  0
LINE
  5
111
100
AcDbEntity
  8
Frame
 62
7
100
AcDbLine
 10
0.000000
 20
1.929134
 30
0.0
 11
1.181102
 21
1.929134
 31
0.0
  0
LINE
  5
112
100
AcDbEntity
  8
Frame
 62
7
100
AcDbLine
 10
1.181102
 20
1.929134
 30
0.0
 11
1.181102
 21
1.338583
 31
0.0
  0
LINE
  5
113
100
AcDbEntity
  8
Frame
 62
7
100
AcDbLine
 10
1.181102
 20
1.338583
 30
0.0
 11
0.000000
 21
1.338583
 31
0.0
  0
LINE
  5
114
100
AcDbEntity
  8
Frame
 62
7
100
AcDbLine
 10
0.000000
 20
1.338583
 30
0.0
 11
0.000000
 21
1.929134
 31
0.0
  0
LINE
  5
115
100
AcDbEntity
  8
Frame
 62
7
100
AcDbLine
 10
1.259843
 20
1.259842
 30
0.0
 11
2.440945
 21
1.259842
 31
0.0
  0
LINE
  5
116
100
AcDbEntity
  8
Frame
 62
7
100
AcDbLine
 10
2.440945
 20
1.259842
 30
0.0
 11
2.440945
 21
0.669291
 31
0.0
  0
LINE
  5
117
100
AcDbEntity
  8
Frame
 62
7
100
AcDbLine
 10
2.440945
 20
0.669291
 30
0.0
 11
1.259843
 21
0.669291
 31
0.0
  0
LINE
  5
118
100
AcDbEntity
  8
Frame
 62
7
100
AcDbLine
 10
1.259843
 20
0.669291
 30
0.0
 11
1.259843
 21
1.259842
 31
0.0
  0
LINE
  5
119
100
AcDbEntity
  8
Frame
 62
7
100
AcDbLine
 10
1.259843
 20
1.929134
 30
0.0
 11
2.440945
 21
1.929134
 31
0.0
  0
LINE
  5
11a
100
AcDbEntity
  8
Frame
 62
7
100
AcDbLine
 10
2.440945
 20
1.929134
 30
0.0
 11
2.440945
 21
1.338583
 31
0.0
  0
LINE
  5
11b
100
AcDbEntity
  8
Frame
 62
7
100
AcDbLine
 10
2.440945
 20
1.338583
 30
0.0
 11
1.259843
 21
1.338583
 31
0.0
  0
LINE
  5
11c
100
AcDbEntity
  8
Frame
 62
7
100
AcDbLine
 10
1.259843
 20
1.338583
 30
0.0
 11
1.259843
 21
1.929134
 31
0.0
  0
LINE
  5
11d
100
AcDbEntity
  8
Frame
 62
7
100
AcDbLine
 10
1.259843
 20
2.598425
 30
0.0
 11
2.440945
 21
2.598425
 31
0.0
  0
LINE
  5
11e
100
AcDbEntity
  8
Frame
 62
7
100
AcDbLine
 10
2.440945
 20
2.598425
 30
0.0
 11
2.440945
 21
2.007874
 31
0.0
  0
LINE
  5
11f
100
AcDbEntity
  8
Frame
 62
7
100
AcDbLine
 10
2.440945
 20
2.007874
 30
0.0
 11
1.259843
 21
2.007874
 31
0.0
  0
LINE
  5
120
100
AcDbEntity
  8
Frame
 62
7
100
AcDbLine
 10
1.259843
 20
2.007874
 30
0.0
 11
1.259843
 21
2.598425
 31
0.0
  0
LINE
  5
121
100
AcDbEntity
  8
Frame
 62
7
100
AcDbLine
 10
1.259843
 20
3.267717
 30
0.0
 11
2.440945
 21
3.267717
 31
0.0
  0
LINE
  5
122
100
AcDbEntity
  8
Frame
 62
7
100
AcDbLine
 10
2.440945
 20
3.267717
 30
0.0
 11
2.440945
 21
2.677166
 31
0.0
  0
LINE
  5
123
100
AcDbEntity
  8
Frame
 62
7
100
AcDbLine
 10
2.440945
 20
2.677166
 30
0.0
 11
1.259843
 21
2.677166
 31
0.0
  0
LINE
  5
124
100
AcDbEntity
  8
Frame
 62
7
100
AcDbLine
 10
1.259843
 20
2.677166
 30
0.0
 11
1.259843
 21
3.267717
 31
0.0
  0
LINE
  5
125
100
AcDbEntity
  8
Frame
 62
7
100
AcDbLine
 10
0.000000
 20
2.598425
 30
0.0
 11
1.181102
 21
2.598425
 31
0.0
  0
LINE
  5
126
100
AcDbEntity
  8
Frame
 62
7
100
AcDbLine
 10
1.181102
 20
2.598425
 30
0.0
 11
1.181102
 21
2.007874
 31
0.0
  0
LINE
  5
127
100
AcDbEntity
  8
Frame
 62
7
100
AcDbLine
 10
1.181102
 20
2.007874
 30
0.0
 11
0.000000
 21
2.007874
 31
0.0
  0
LINE
  5
128
100
AcDbEntity
  8
Frame
 62
7
100
AcDbLine
 10
0.000000
 20
2.007874
 30
0.0
 11
0.000000
 21
2.598425
 31
0.0
  0
LINE
  5
129
100
AcDbEntity
  8
Frame
 62
7
100
AcDbLine
 10
0.000000
 20
3.267717
 30
0.0
 11
1.181102
 21
3.267717
 31
0.0
  0
LINE
  5
12a
100
AcDbEntity
  8
Frame
 62
7
100
AcDbLine
 10
1.181102
 20
3.267717
 30
0.0
 11
1.181102
 21
2.677166
 31
0.0
  0
LINE
  5
12b
100
AcDbEntity
  8
Frame
 62
7
100
AcDbLine
 10
1.181102
 20
2.677166
 30
0.0
 11
0.000000
 21
2.677166
 31
0.0
  0
LINE
  5
12c
100
AcDbEntity
  8
Frame
 62
7
100
AcDbLine
 10
0.000000
 20
2.677166
 30
0.0
 11
0.000000
 21
3.267717
 31
0.0
  0
LINE
  5
12d
100
AcDbEntity
  8
Cut
 62
3
100
AcDbLine
 10
0.265748
 20
0.462599
 30
0.0
 11
0.915354
 21
0.462599
 31
0.0
  0
LINE
  5
12e
100
AcDbEntity
  8
Cut
 62
3
100
AcDbLine
 10
0.915354
 20
0.462599
 30
0.0
 11
0.915354
 21
0.127953
 31
0.0
  0
LINE
  5
12f
100
AcDbEntity
  8
Cut
 62
3
100
AcDbLine
 10
0.915354
 20
0.127953
 30
0.0
 11
0.265748
 21
0.127953
 31
0.0
  0
LINE
  5
130
100
AcDbEntity
  8
Cut
 62
3
100
AcDbLine
 10
0.265748
 20
0.127953
 30
0.0
 11
0.265748
 21
0.462599
 31
0.0
  0
SPLINE
  5
131
100
AcDbEntity
  8
Cut
 62
3
100
AcDbSpline
 70
8
 71
3
 72
8
 73
4
 74
0
 40
0
 40
0
 40
0
 40
0
 40
1
 40
1
 40
1
 40
1
 10
0.165352
 20
0.295276
 30
0.0
 10
0.165352
 20
0.260486
 30
0.0
 10
0.137149
 20
0.232284
 30
0.0
 10
0.102360
 20
0.232284
 30
0.0
  0
SPLINE
  5
132
100
AcDbEntity
  8
Cut
 62
3
100
AcDbSpline
 70
8
 71
3
 72
8
 73
4
 74
0
 40
0
 40
0
 40
0
 40
0
 40
1
 40
1
 40
1
 40
1
 10
0.102360
 20
0.232284
 30
0.0
 10
0.067571
 20
0.232284
 30
0.0
 10
0.039369
 20
0.260486
 30
0.0
 10
0.039368
 20
0.295276
 30
0.0
  0
SPLINE
  5
133
100
AcDbEntity
  8
Cut
 62
3
100
AcDbSpline
 70
8
 71
3
 72
8
 73
4
 74
0
 40
0
 40
0
 40
0
 40
0
 40
1
 40
1
 40
1
 40
1
 10
0.039368
 20
0.295276
 30
0.0
 10
0.039368
 20
0.311982
 30
0.0
 10
0.046005
 20
0.328004
 30
0.0
 10
0.057818
 20
0.339818
 30
0.0
  0
SPLINE
  5
134
100
AcDbEntity
  8
Cut
 62
3
100
AcDbSpline
 70
8
 71
3
 72
8
 73
4
 74
0
 40
0
 40
0
 40
0
 40
0
 40
1
 40
1
 40
1
 40
1
 10
0.057818
 20
0.339818
 30
0.0
 10
0.069631
 20
0.351631
 30
0.0
 10
0.085654
 20
0.358268
 30
0.0
 10
0.102360
 20
0.358268
 30
0.0
  0
SPLINE
  5
135
100
AcDbEntity
  8
Cut
 62
3
100
AcDbSpline
 70
8
 71
3
 72
8
 73
4
 74
0
 40
0
 40
0
 40
0
 40
0
 40
1
 40
1
 40
1
 40
1
 10
0.102360
 20
0.358268
 30
0.0
 10
0.119067
 20
0.358268
 30
0.0
 10
0.135089
 20
0.351631
 30
0.0
 10
0.146902
 20
0.339818
 30
0.0
  0
SPLINE
  5
136
100
AcDbEntity
  8
Cut
 62
3
100
AcDbSpline
 70
8
 71
3
 72
8
 73
4
 74
0
 40
0
 40
0
 40
0
 40
0
 40
1
 40
1
 40
1
 40
1
 10
0.146902
 20
0.339818
 30
0.0
 10
0.158716
 20
0.328004
 30
0.0
 10
0.165352
 20
0.311982
 30
0.0
 10
0.165352
 20
0.295276
 30
0.0
  0
LINE
  5
137
100
AcDbEntity
  8
Cut
 62
3
100
AcDbLine
 10
0.165352
 20
0.295276
 30
0.0
 11
0.165352
 21
0.295276
 31
0.0
  0
SPLINE
  5
138
100
AcDbEntity
  8
Cut
 62
3
100
AcDbSpline
 70
8
 71
3
 72
8
 73
4
 74
0
 40
0
 40
0
 40
0
 40
0
 40
1
 40
1
 40
1
 40
1
 10
1.141734
 20
0.295276
 30
0.0
 10
1.141734
 20
0.260486
 30
0.0
 10
1.113531
 20
0.232284
 30
0.0
 10
1.078742
 20
0.232284
 30
0.0
  0
SPLINE
  5
139
100
AcDbEntity
  8
Cut
 62
3
100
AcDbSpline
 70
8
 71
3
 72
8
 73
4
 74
0
 40
0
 40
0
 40
0
 40
0
 40
1
 40
1
 40
1
 40
1
 10
1.078742
 20
0.232284
 30
0.0
 10
1.043953
 20
0.232284
 30
0.0
 10
1.015751
 20
0.260486
 30
0.0
 10
1.015750
 20
0.295276
 30
0.0
  0
SPLINE
  5
13a
100
AcDbEntity
  8
Cut
 62
3
100
AcDbSpline
 70
8
 71
3
 72
8
 73
4
 74
0
 40
0
 40
0
 40
0
 40
0
 40
1
 40
1
 40
1
 40
1
 10
1.015750
 20
0.295276
 30
0.0
 10
1.015750
 20
0.311982
 30
0.0
 10
1.022387
 20
0.328004
 30
0.0
 10
1.034200
 20
0.339818
 30
0.0
  0
SPLINE
  5
13b
100
AcDbEntity
  8
Cut
 62
3
100
AcDbSpline
 70
8
 71
3
 72
8
 73
4
 74
0
 40
0
 40
0
 40
0
 40
0
 40
1
 40
1
 40
1
 40
1
 10
1.034200
 20
0.339818
 30
0.0
 10
1.046013
 20
0.351631
 30
0.0
 10
1.062036
 20
0.358268
 30
0.0
 10
1.078742
 20
0.358268
 30
0.0
  0
SPLINE
  5
13c
100
AcDbEntity
  8
Cut
 62
3
100
AcDbSpline
 70
8
 71
3
 72
8
 73
4
 74
0
 40
0
 40
0
 40
0
 40
0
 40
1
 40
1
 40
1
 40
1
 10
1.078742
 20
0.358268
 30
0.0
 10
1.095449
 20
0.358268
 30
0.0
 10
1.111471
 20
0.351631
 30
0.0
 10
1.123284
 20
0.339818
 30
0.0
  0
SPLINE
  5
13d
100
AcDbEntity
  8
Cut
 62
3
100
AcDbSpline
 70
8
 71
3
 72
8
 73
4
 74
0
 40
0
 40
0
 40
0
 40
0
 40
1
 40
1
 40
1
 40
1
 10
1.123284
 20
0.339818
 30
0.0
 10
1.135098
 20
0.328004
 30
0.0
 10
1.141734
 20
0.311982
 30
0.0
 10
1.141734
 20
0.295276
 30
0.0
  0
LINE
  5
13e
100
AcDbEntity
  8
Cut
 62
3
100
AcDbLine
 10
1.141734
 20
0.295276
 30
0.0
 11
1.141734
 21
0.295276
 31
0.0
  0
SPLINE
  5
13f
100
AcDbEntity
  8
Cut
 62
3
100
AcDbSpline
 70
8
 71
3
 72
8
 73
4
 74
0
 40
0
 40
0
 40
0
 40
0
 40
1
 40
1
 40
1
 40
1
 10
1.425203
 20
0.295276
 30
0.0
 10
1.425202
 20
0.260486
 30
0.0
 10
1.397000
 20
0.232284
 30
0.0
 10
1.362211
 20
0.232284
 30
0.0
  0
SPLINE
  5
140
100
AcDbEntity
  8
Cut
 62
3
100
AcDbSpline
 70
8
 71
3
 72
8
 73
4
 74
0
 40
0
 40
0
 40
0
 40
0
 40
1
 40
1
 40
1
 40
1
 10
1.362211
 20
0.232284
 30
0.0
 10
1.327421
 20
0.232284
 30
0.0
 10
1.299219
 20
0.260486
 30
0.0
 10
1.299219
 20
0.295276
 30
0.0
  0
SPLINE
  5
141
100
AcDbEntity
  8
Cut
 62
3
100
AcDbSpline
 70
8
 71
3
 72
8
 73
4
 74
0
 40
0
 40
0
 40
0
 40
0
 40
1
 40
1
 40
1
 40
1
 10
1.299219
 20
0.295276
 30
0.0
 10
1.299218
 20
0.311982
 30
0.0
 10
1.305855
 20
0.328004
 30
0.0
 10
1.317668
 20
0.339818
 30
0.0
  0
SPLINE
  5
142
100
AcDbEntity
  8
Cut
 62
3
100
AcDbSpline
 70
8
 71
3
 72
8
 73
4
 74
0
 40
0
 40
0
 40
0
 40
0
 40
1
 40
1
 40
1
 40
1
 10
1.317668
 20
0.339818
 30
0.0
 10
1.329482
 20
0.351631
 30
0.0
 10
1.345504
 20
0.358268
 30
0.0
 10
1.362211
 20
0.358268
 30
0.0
  0
SPLINE
  5
143
100
AcDbEntity
  8
Cut
 62
3
100
AcDbSpline
 70
8
 71
3
 72
8
 73
4
 74
0
 40
0
 40
0
 40
0
 40
0
 40
1
 40
1
 40
1
 40
1
 10
1.362211
 20
0.358268
 30
0.0
 10
1.378917
 20
0.358268
 30
0.0
 10
1.394939
 20
0.351631
 30
0.0
 10
1.406753
 20
0.339818
 30
0.0
  0
SPLINE
  5
144
100
AcDbEntity
  8
Cut
 62
3
100
AcDbSpline
 70
8
 71
3
 72
8
 73
4
 74
0
 40
0
 40
0
 40
0
 40
0
 40
1
 40
1
 40
1
 40
1
 10
1.406753
 20
0.339818
 30
0.0
 10
1.418566
 20
0.328004
 30
0.0
 10
1.425203
 20
0.311982
 30
0.0
 10
1.425203
 20
0.295276
 30
0.0
  0
LINE
  5
145
100
AcDbEntity
  8
Cut
 62
3
100
AcDbLine
 10
1.425203
 20
0.295276
 30
0.0
 11
1.425203
 21
0.295276
 31
0.0
  0
SPLINE
  5
146
100
AcDbEntity
  8
Cut
 62
3
100
AcDbSpline
 70
8
 71
3
 72
8
 73
4
 74
0
 40
0
 40
0
 40
0
 40
0
 40
1
 40
1
 40
1
 40
1
 10
2.401585
 20
0.295276
 30
0.0
 10
2.401584
 20
0.260486
 30
0.0
 10
2.373382
 20
0.232284
 30
0.0
 10
2.338592
 20
0.232284
 30
0.0
  0
SPLINE
  5
147
100
AcDbEntity
  8
Cut
 62
3
100
AcDbSpline
 70
8
 71
3
 72
8
 73
4
 74
0
 40
0
 40
0
 40
0
 40
0
 40
1
 40
1
 40
1
 40
1
 10
2.338592
 20
0.232284
 30
0.0
 10
2.303803
 20
0.232284
 30
0.0
 10
2.275601
 20
0.260486
 30
0.0
 10
2.275600
 20
0.295276
 30
0.0
  0
SPLINE
  5
148
100
AcDbEntity
  8
Cut
 62
3
100
AcDbSpline
 70
8
 71
3
 72
8
 73
4
 74
0
 40
0
 40
0
 40
0
 40
0
 40
1
 40
1
 40
1
 40
1
 10
2.275600
 20
0.295276
 30
0.0
 10
2.275600
 20
0.311982
 30
0.0
 10
2.282237
 20
0.328004
 30
0.0
 10
2.294050
 20
0.339818
 30
0.0
  0
SPLINE
  5
149
100
AcDbEntity
  8
Cut
 62
3
100
AcDbSpline
 70
8
 71
3
 72
8
 73
4
 74
0
 40
0
 40
0
 40
0
 40
0
 40
1
 40
1
 40
1
 40
1
 10
2.294050
 20
0.339818
 30
0.0
 10
2.305864
 20
0.351631
 30
0.0
 10
2.321886
 20
0.358268
 30
0.0
 10
2.338592
 20
0.358268
 30
0.0
  0
SPLINE
  5
14a
100
AcDbEntity
  8
Cut
 62
3
100
AcDbSpline
 70
8
 71
3
 72
8
 73
4
 74
0
 40
0
 40
0
 40
0
 40
0
 40
1
 40
1
 40
1
 40
1
 10
2.338592
 20
0.358268
 30
0.0
 10
2.355299
 20
0.358268
 30
0.0
 10
2.371321
 20
0.351631
 30
0.0
 10
2.383135
 20
0.339818
 30
0.0
  0
SPLINE
  5
14b
100
AcDbEntity
  8
Cut
 62
3
100
AcDbSpline
 70
8
 71
3
 72
8
 73
4
 74
0
 40
0
 40
0
 40
0
 40
0
 40
1
 40
1
 40
1
 40
1
 10
2.383135
 20
0.339818
 30
0.0
 10
2.394948
 20
0.328004
 30
0.0
 10
2.401585
 20
0.311982
 30
0.0
 10
2.401585
 20
0.295276
 30
0.0
  0
LINE
  5
14c
100
AcDbEntity
  8
Cut
 62
3
100
AcDbLine
 10
2.401585
 20
0.295276
 30
0.0
 11
2.401585
 21
0.295276
 31
0.0
  0
LINE
  5
14d
100
AcDbEntity
  8
Cut
 62
3
100
AcDbLine
 10
0.265748
 20
1.131890
 30
0.0
 11
0.915354
 21
1.131890
 31
0.0
  0
LINE
  5
14e
100
AcDbEntity
  8
Cut
 62
3
100
AcDbLine
 10
0.915354
 20
1.131890
 30
0.0
 11
0.915354
 21
0.797245
 31
0.0
  0
LINE
  5
14f
100
AcDbEntity
  8
Cut
 62
3
100
AcDbLine
 10
0.915354
 20
0.797245
 30
0.0
 11
0.265748
 21
0.797245
 31
0.0
  0
LINE
  5
150
100
AcDbEntity
  8
Cut
 62
3
100
AcDbLine
 10
0.265748
 20
0.797245
 30
0.0
 11
0.265748
 21
1.131890
 31
0.0
  0
SPLINE
  5
151
100
AcDbEntity
  8
Cut
 62
3
100
AcDbSpline
 70
8
 71
3
 72
8
 73
4
 74
0
 40
0
 40
0
 40
0
 40
0
 40
1
 40
1
 40
1
 40
1
 10
0.165352
 20
0.964567
 30
0.0
 10
0.165352
 20
0.929778
 30
0.0
 10
0.137149
 20
0.901576
 30
0.0
 10
0.102360
 20
0.901576
 30
0.0
  0
SPLINE
  5
152
100
AcDbEntity
  8
Cut
 62
3
100
AcDbSpline
 70
8
 71
3
 72
8
 73
4
 74
0
 40
0
 40
0
 40
0
 40
0
 40
1
 40
1
 40
1
 40
1
 10
0.102360
 20
0.901576
 30
0.0
 10
0.067571
 20
0.901576
 30
0.0
 10
0.039369
 20
0.929778
 30
0.0
 10
0.039368
 20
0.964567
 30
0.0
  0
SPLINE
  5
153
100
AcDbEntity
  8
Cut
 62
3
100
AcDbSpline
 70
8
 71
3
 72
8
 73
4
 74
0
 40
0
 40
0
 40
0
 40
0
 40
1
 40
1
 40
1
 40
1
 10
0.039368
 20
0.964567
 30
0.0
 10
0.039368
 20
0.981274
 30
0.0
 10
0.046005
 20
0.997296
 30
0.0
 10
0.057818
 20
1.009109
 30
0.0
  0
SPLINE
  5
154
100
AcDbEntity
  8
Cut
 62
3
100
AcDbSpline
 70
8
 71
3
 72
8
 73
4
 74
0
 40
0
 40
0
 40
0
 40
0
 40
1
 40
1
 40
1
 40
1
 10
0.057818
 20
1.009109
 30
0.0
 10
0.069631
 20
1.020922
 30
0.0
 10
0.085654
 20
1.027559
 30
0.0
 10
0.102360
 20
1.027559
 30
0.0
  0
SPLINE
  5
155
100
AcDbEntity
  8
Cut
 62
3
100
AcDbSpline
 70
8
 71
3
 72
8
 73
4
 74
0
 40
0
 40
0
 40
0
 40
0
 40
1
 40
1
 40
1
 40
1
 10
0.102360
 20
1.027559
 30
0.0
 10
0.119067
 20
1.027559
 30
0.0
 10
0.135089
 20
1.020922
 30
0.0
 10
0.146902
 20
1.009109
 30
0.0
  0
SPLINE
  5
156
100
AcDbEntity
  8
Cut
 62
3
100
AcDbSpline
 70
8
 71
3
 72
8
 73
4
 74
0
 40
0
 40
0
 40
0
 40
0
 40
1
 40
1
 40
1
 40
1
 10
0.146902
 20
1.009109
 30
0.0
 10
0.158716
 20
0.997296
 30
0.0
 10
0.165352
 20
0.981274
 30
0.0
 10
0.165352
 20
0.964567
 30
0.0
  0
LINE
  5
157
100
AcDbEntity
  8
Cut
 62
3
100
AcDbLine
 10
0.165352
 20
0.964567
 30
0.0
 11
0.165352
 21
0.964567
 31
0.0
  0
SPLINE
  5
158
100
AcDbEntity
  8
Cut
 62
3
100
AcDbSpline
 70
8
 71
3
 72
8
 73
4
 74
0
 40
0
 40
0
 40
0
 40
0
 40
1
 40
1
 40
1
 40
1
 10
1.141734
 20
0.964567
 30
0.0
 10
1.141734
 20
0.929778
 30
0.0
 10
1.113531
 20
0.901576
 30
0.0
 10
1.078742
 20
0.901576
 30
0.0
  0
SPLINE
  5
159
100
AcDbEntity
  8
Cut
 62
3
100
AcDbSpline
 70
8
 71
3
 72
8
 73
4
 74
0
 40
0
 40
0
 40
0
 40
0
 40
1
 40
1
 40
1
 40
1
 10
1.078742
 20
0.901576
 30
0.0
 10
1.043953
 20
0.901576
 30
0.0
 10
1.015751
 20
0.929778
 30
0.0
 10
1.015750
 20
0.964567
 30
0.0
  0
SPLINE
  5
15a
100
AcDbEntity
  8
Cut
 62
3
100
AcDbSpline
 70
8
 71
3
 72
8
 73
4
 74
0
 40
0
 40
0
 40
0
 40
0
 40
1
 40
1
 40
1
 40
1
 10
1.015750
 20
0.964567
 30
0.0
 10
1.015750
 20
0.981274
 30
0.0
 10
1.022387
 20
0.997296
 30
0.0
 10
1.034200
 20
1.009109
 30
0.0
  0
SPLINE
  5
15b
100
AcDbEntity
  8
Cut
 62
3
100
AcDbSpline
 70
8
 71
3
 72
8
 73
4
 74
0
 40
0
 40
0
 40
0
 40
0
 40
1
 40
1
 40
1
 40
1
 10
1.034200
 20
1.009109
 30
0.0
 10
1.046013
 20
1.020922
 30
0.0
 10
1.062036
 20
1.027559
 30
0.0
 10
1.078742
 20
1.027559
 30
0.0
  0
SPLINE
  5
15c
100
AcDbEntity
  8
Cut
 62
3
100
AcDbSpline
 70
8
 71
3
 72
8
 73
4
 74
0
 40
0
 40
0
 40
0
 40
0
 40
1
 40
1
 40
1
 40
1
 10
1.078742
 20
1.027559
 30
0.0
 10
1.095449
 20
1.027559
 30
0.0
 10
1.111471
 20
1.020923
 30
0.0
 10
1.123284
 20
1.009109
 30
0.0
  0
SPLINE
  5
15d
100
AcDbEntity
  8
Cut
 62
3
100
AcDbSpline
 70
8
 71
3
 72
8
 73
4
 74
0
 40
0
 40
0
 40
0
 40
0
 40
1
 40
1
 40
1
 40
1
 10
1.123284
 20
1.009109
 30
0.0
 10
1.135098
 20
0.997296
 30
0.0
 10
1.141734
 20
0.981274
 30
0.0
 10
1.141734
 20
0.964567
 30
0.0
  0
LINE
  5
15e
100
AcDbEntity
  8
Cut
 62
3
100
AcDbLine
 10
1.141734
 20
0.964567
 30
0.0
 11
1.141734
 21
0.964567
 31
0.0
  0
LINE
  5
15f
100
AcDbEntity
  8
Cut
 62
3
100
AcDbLine
 10
0.265748
 20
1.801182
 30
0.0
 11
0.915354
 21
1.801182
 31
0.0
  0
LINE
  5
160
100
AcDbEntity
  8
Cut
 62
3
100
AcDbLine
 10
0.915354
 20
1.801182
 30
0.0
 11
0.915354
 21
1.466536
 31
0.0
  0
LINE
  5
161
100
AcDbEntity
  8
Cut
 62
3
100
AcDbLine
 10
0.915354
 20
1.466536
 30
0.0
 11
0.265748
 21
1.466536
 31
0.0
  0
LINE
  5
162
100
AcDbEntity
  8
Cut
 62
3
100
AcDbLine
 10
0.265748
 20
1.466536
 30
0.0
 11
0.265748
 21
1.801182
 31
0.0
  0
SPLINE
  5
163
100
AcDbEntity
  8
Cut
 62
3
100
AcDbSpline
 70
8
 71
3
 72
8
 73
4
 74
0
 40
0
 40
0
 40
0
 40
0
 40
1
 40
1
 40
1
 40
1
 10
0.165352
 20
1.633858
 30
0.0
 10
0.165352
 20
1.599069
 30
0.0
 10
0.137149
 20
1.570867
 30
0.0
 10
0.102360
 20
1.570867
 30
0.0
  0
SPLINE
  5
164
100
AcDbEntity
  8
Cut
 62
3
100
AcDbSpline
 70
8
 71
3
 72
8
 73
4
 74
0
 40
0
 40
0
 40
0
 40
0
 40
1
 40
1
 40
1
 40
1
 10
0.102360
 20
1.570867
 30
0.0
 10
0.067571
 20
1.570867
 30
0.0
 10
0.039369
 20
1.599069
 30
0.0
 10
0.039368
 20
1.633858
 30
0.0
  0
SPLINE
  5
165
100
AcDbEntity
  8
Cut
 62
3
100
AcDbSpline
 70
8
 71
3
 72
8
 73
4
 74
0
 40
0
 40
0
 40
0
 40
0
 40
1
 40
1
 40
1
 40
1
 10
0.039368
 20
1.633858
 30
0.0
 10
0.039368
 20
1.650565
 30
0.0
 10
0.046005
 20
1.666587
 30
0.0
 10
0.057818
 20
1.678400
 30
0.0
  0
SPLINE
  5
166
100
AcDbEntity
  8
Cut
 62
3
100
AcDbSpline
 70
8
 71
3
 72
8
 73
4
 74
0
 40
0
 40
0
 40
0
 40
0
 40
1
 40
1
 40
1
 40
1
 10
0.057818
 20
1.678400
 30
0.0
 10
0.069631
 20
1.690214
 30
0.0
 10
0.085654
 20
1.696850
 30
0.0
 10
0.102360
 20
1.696850
 30
0.0
  0
SPLINE
  5
167
100
AcDbEntity
  8
Cut
 62
3
100
AcDbSpline
 70
8
 71
3
 72
8
 73
4
 74
0
 40
0
 40
0
 40
0
 40
0
 40
1
 40
1
 40
1
 40
1
 10
0.102360
 20
1.696850
 30
0.0
 10
0.119067
 20
1.696850
 30
0.0
 10
0.135089
 20
1.690214
 30
0.0
 10
0.146902
 20
1.678400
 30
0.0
  0
SPLINE
  5
168
100
AcDbEntity
  8
Cut
 62
3
100
AcDbSpline
 70
8
 71
3
 72
8
 73
4
 74
0
 40
0
 40
0
 40
0
 40
0
 40
1
 40
1
 40
1
 40
1
 10
0.146902
 20
1.678400
 30
0.0
 10
0.158716
 20
1.666587
 30
0.0
 10
0.165352
 20
1.650565
 30
0.0
 10
0.165352
 20
1.633858
 30
0.0
  0
LINE
  5
169
100
AcDbEntity
  8
Cut
 62
3
100
AcDbLine
 10
0.165352
 20
1.633858
 30
0.0
 11
0.165352
 21
1.633858
 31
0.0
  0
SPLINE
  5
16a
100
AcDbEntity
  8
Cut
 62
3
100
AcDbSpline
 70
8
 71
3
 72
8
 73
4
 74
0
 40
0
 40
0
 40
0
 40
0
 40
1
 40
1
 40
1
 40
1
 10
1.141734
 20
1.633858
 30
0.0
 10
1.141734
 20
1.599069
 30
0.0
 10
1.113531
 20
1.570867
 30
0.0
 10
1.078742
 20
1.570867
 30
0.0
  0
SPLINE
  5
16b
100
AcDbEntity
  8
Cut
 62
3
100
AcDbSpline
 70
8
 71
3
 72
8
 73
4
 74
0
 40
0
 40
0
 40
0
 40
0
 40
1
 40
1
 40
1
 40
1
 10
1.078742
 20
1.570867
 30
0.0
 10
1.043953
 20
1.570867
 30
0.0
 10
1.015751
 20
1.599069
 30
0.0
 10
1.015750
 20
1.633858
 30
0.0
  0
SPLINE
  5
16c
100
AcDbEntity
  8
Cut
 62
3
100
AcDbSpline
 70
8
 71
3
 72
8
 73
4
 74
0
 40
0
 40
0
 40
0
 40
0
 40
1
 40
1
 40
1
 40
1
 10
1.015750
 20
1.633858
 30
0.0
 10
1.015750
 20
1.650565
 30
0.0
 10
1.022387
 20
1.666587
 30
0.0
 10
1.034200
 20
1.678400
 30
0.0
  0
SPLINE
  5
16d
100
AcDbEntity
  8
Cut
 62
3
100
AcDbSpline
 70
8
 71
3
 72
8
 73
4
 74
0
 40
0
 40
0
 40
0
 40
0
 40
1
 40
1
 40
1
 40
1
 10
1.034200
 20
1.678400
 30
0.0
 10
1.046013
 20
1.690214
 30
0.0
 10
1.062036
 20
1.696850
 30
0.0
 10
1.078742
 20
1.696850
 30
0.0
  0
SPLINE
  5
16e
100
AcDbEntity
  8
Cut
 62
3
100
AcDbSpline
 70
8
 71
3
 72
8
 73
4
 74
0
 40
0
 40
0
 40
0
 40
0
 40
1
 40
1
 40
1
 40
1
 10
1.078742
 20
1.696850
 30
0.0
 10
1.095449
 20
1.696851
 30
0.0
 10
1.111471
 20
1.690214
 30
0.0
 10
1.123284
 20
1.678400
 30
0.0
  0
SPLINE
  5
16f
100
AcDbEntity
  8
Cut
 62
3
100
AcDbSpline
 70
8
 71
3
 72
8
 73
4
 74
0
 40
0
 40
0
 40
0
 40
0
 40
1
 40
1
 40
1
 40
1
 10
1.123284
 20
1.678400
 30
0.0
 10
1.135098
 20
1.666587
 30
0.0
 10
1.141734
 20
1.650565
 30
0.0
 10
1.141734
 20
1.633858
 30
0.0
  0
LINE
  5
170
100
AcDbEntity
  8
Cut
 62
3
100
AcDbLine
 10
1.141734
 20
1.633858
 30
0.0
 11
1.141734
 21
1.633858
 31
0.0
  0
LINE
  5
171
100
AcDbEntity
  8
Cut
 62
3
100
AcDbLine
 10
1.525591
 20
1.131890
 30
0.0
 11
2.175197
 21
1.131890
 31
0.0
  0
LINE
  5
172
100
AcDbEntity
  8
Cut
 62
3
100
AcDbLine
 10
2.175197
 20
1.131890
 30
0.0
 11
2.175197
 21
0.797245
 31
0.0
  0
LINE
  5
173
100
AcDbEntity
  8
Cut
 62
3
100
AcDbLine
 10
2.175197
 20
0.797245
 30
0.0
 11
1.525591
 21
0.797245
 31
0.0
  0
LINE
  5
174
100
AcDbEntity
  8
Cut
 62
3
100
AcDbLine
 10
1.525591
 20
0.797245
 30
0.0
 11
1.525591
 21
1.131890
 31
0.0
  0
SPLINE
  5
175
100
AcDbEntity
  8
Cut
 62
3
100
AcDbSpline
 70
8
 71
3
 72
8
 73
4
 74
0
 40
0
 40
0
 40
0
 40
0
 40
1
 40
1
 40
1
 40
1
 10
1.425195
 20
0.964567
 30
0.0
 10
1.425194
 20
0.929778
 30
0.0
 10
1.396992
 20
0.901576
 30
0.0
 10
1.362203
 20
0.901576
 30
0.0
  0
SPLINE
  5
176
100
AcDbEntity
  8
Cut
 62
3
100
AcDbSpline
 70
8
 71
3
 72
8
 73
4
 74
0
 40
0
 40
0
 40
0
 40
0
 40
1
 40
1
 40
1
 40
1
 10
1.362203
 20
0.901576
 30
0.0
 10
1.327414
 20
0.901576
 30
0.0
 10
1.299211
 20
0.929778
 30
0.0
 10
1.299211
 20
0.964567
 30
0.0
  0
SPLINE
  5
177
100
AcDbEntity
  8
Cut
 62
3
100
AcDbSpline
 70
8
 71
3
 72
8
 73
4
 74
0
 40
0
 40
0
 40
0
 40
0
 40
1
 40
1
 40
1
 40
1
 10
1.299211
 20
0.964567
 30
0.0
 10
1.299211
 20
0.981274
 30
0.0
 10
1.305847
 20
0.997296
 30
0.0
 10
1.317661
 20
1.009109
 30
0.0
  0
SPLINE
  5
178
100
AcDbEntity
  8
Cut
 62
3
100
AcDbSpline
 70
8
 71
3
 72
8
 73
4
 74
0
 40
0
 40
0
 40
0
 40
0
 40
1
 40
1
 40
1
 40
1
 10
1.317661
 20
1.009109
 30
0.0
 10
1.329474
 20
1.020922
 30
0.0
 10
1.345496
 20
1.027559
 30
0.0
 10
1.362203
 20
1.027559
 30
0.0
  0
SPLINE
  5
179
100
AcDbEntity
  8
Cut
 62
3
100
AcDbSpline
 70
8
 71
3
 72
8
 73
4
 74
0
 40
0
 40
0
 40
0
 40
0
 40
1
 40
1
 40
1
 40
1
 10
1.362203
 20
1.027559
 30
0.0
 10
1.378909
 20
1.027559
 30
0.0
 10
1.394932
 20
1.020922
 30
0.0
 10
1.406745
 20
1.009109
 30
0.0
  0
SPLINE
  5
17a
100
AcDbEntity
  8
Cut
 62
3
100
AcDbSpline
 70
8
 71
3
 72
8
 73
4
 74
0
 40
0
 40
0
 40
0
 40
0
 40
1
 40
1
 40
1
 40
1
 10
1.406745
 20
1.009109
 30
0.0
 10
1.418558
 20
0.997296
 30
0.0
 10
1.425195
 20
0.981274
 30
0.0
 10
1.425195
 20
0.964567
 30
0.0
  0
LINE
  5
17b
100
AcDbEntity
  8
Cut
 62
3
100
AcDbLine
 10
1.425195
 20
0.964567
 30
0.0
 11
1.425195
 21
0.964567
 31
0.0
  0
SPLINE
  5
17c
100
AcDbEntity
  8
Cut
 62
3
100
AcDbSpline
 70
8
 71
3
 72
8
 73
4
 74
0
 40
0
 40
0
 40
0
 40
0
 40
1
 40
1
 40
1
 40
1
 10
2.401577
 20
0.964567
 30
0.0
 10
2.401576
 20
0.929778
 30
0.0
 10
2.373374
 20
0.901576
 30
0.0
 10
2.338585
 20
0.901576
 30
0.0
  0
SPLINE
  5
17d
100
AcDbEntity
  8
Cut
 62
3
100
AcDbSpline
 70
8
 71
3
 72
8
 73
4
 74
0
 40
0
 40
0
 40
0
 40
0
 40
1
 40
1
 40
1
 40
1
 10
2.338585
 20
0.901576
 30
0.0
 10
2.303796
 20
0.901576
 30
0.0
 10
2.275593
 20
0.929778
 30
0.0
 10
2.275593
 20
0.964567
 30
0.0
  0
SPLINE
  5
17e
100
AcDbEntity
  8
Cut
 62
3
100
AcDbSpline
 70
8
 71
3
 72
8
 73
4
 74
0
 40
0
 40
0
 40
0
 40
0
 40
1
 40
1
 40
1
 40
1
 10
2.275593
 20
0.964567
 30
0.0
 10
2.275593
 20
0.981274
 30
0.0
 10
2.282229
 20
0.997296
 30
0.0
 10
2.294043
 20
1.009109
 30
0.0
  0
SPLINE
  5
17f
100
AcDbEntity
  8
Cut
 62
3
100
AcDbSpline
 70
8
 71
3
 72
8
 73
4
 74
0
 40
0
 40
0
 40
0
 40
0
 40
1
 40
1
 40
1
 40
1
 10
2.294043
 20
1.009109
 30
0.0
 10
2.305856
 20
1.020922
 30
0.0
 10
2.321878
 20
1.027559
 30
0.0
 10
2.338585
 20
1.027559
 30
0.0
  0
SPLINE
  5
180
100
AcDbEntity
  8
Cut
 62
3
100
AcDbSpline
 70
8
 71
3
 72
8
 73
4
 74
0
 40
0
 40
0
 40
0
 40
0
 40
1
 40
1
 40
1
 40
1
 10
2.338585
 20
1.027559
 30
0.0
 10
2.355291
 20
1.027559
 30
0.0
 10
2.371314
 20
1.020923
 30
0.0
 10
2.383127
 20
1.009109
 30
0.0
  0
SPLINE
  5
181
100
AcDbEntity
  8
Cut
 62
3
100
AcDbSpline
 70
8
 71
3
 72
8
 73
4
 74
0
 40
0
 40
0
 40
0
 40
0
 40
1
 40
1
 40
1
 40
1
 10
2.383127
 20
1.009109
 30
0.0
 10
2.394940
 20
0.997296
 30
0.0
 10
2.401577
 20
0.981274
 30
0.0
 10
2.401577
 20
0.964567
 30
0.0
  0
LINE
  5
182
100
AcDbEntity
  8
Cut
 62
3
100
AcDbLine
 10
2.401577
 20
0.964567
 30
0.0
 11
2.401577
 21
0.964567
 31
0.0
  0
LINE
  5
183
100
AcDbEntity
  8
Cut
 62
3
100
AcDbLine
 10
1.525591
 20
1.801182
 30
0.0
 11
2.175197
 21
1.801182
 31
0.0
  0
LINE
  5
184
100
AcDbEntity
  8
Cut
 62
3
100
AcDbLine
 10
2.175197
 20
1.801182
 30
0.0
 11
2.175197
 21
1.466536
 31
0.0
  0
LINE
  5
185
100
AcDbEntity
  8
Cut
 62
3
100
AcDbLine
 10
2.175197
 20
1.466536
 30
0.0
 11
1.525591
 21
1.466536
 31
0.0
  0
LINE
  5
186
100
AcDbEntity
  8
Cut
 62
3
100
AcDbLine
 10
1.525591
 20
1.466536
 30
0.0
 11
1.525591
 21
1.801182
 31
0.0
  0
SPLINE
  5
187
100
AcDbEntity
  8
Cut
 62
3
100
AcDbSpline
 70
8
 71
3
 72
8
 73
4
 74
0
 40
0
 40
0
 40
0
 40
0
 40
1
 40
1
 40
1
 40
1
 10
1.425195
 20
1.633858
 30
0.0
 10
1.425194
 20
1.599069
 30
0.0
 10
1.396992
 20
1.570867
 30
0.0
 10
1.362203
 20
1.570867
 30
0.0
  0
SPLINE
  5
188
100
AcDbEntity
  8
Cut
 62
3
100
AcDbSpline
 70
8
 71
3
 72
8
 73
4
 74
0
 40
0
 40
0
 40
0
 40
0
 40
1
 40
1
 40
1
 40
1
 10
1.362203
 20
1.570867
 30
0.0
 10
1.327414
 20
1.570867
 30
0.0
 10
1.299211
 20
1.599069
 30
0.0
 10
1.299211
 20
1.633858
 30
0.0
  0
SPLINE
  5
189
100
AcDbEntity
  8
Cut
 62
3
100
AcDbSpline
 70
8
 71
3
 72
8
 73
4
 74
0
 40
0
 40
0
 40
0
 40
0
 40
1
 40
1
 40
1
 40
1
 10
1.299211
 20
1.633858
 30
0.0
 10
1.299211
 20
1.650565
 30
0.0
 10
1.305847
 20
1.666587
 30
0.0
 10
1.317661
 20
1.678400
 30
0.0
  0
SPLINE
  5
18a
100
AcDbEntity
  8
Cut
 62
3
100
AcDbSpline
 70
8
 71
3
 72
8
 73
4
 74
0
 40
0
 40
0
 40
0
 40
0
 40
1
 40
1
 40
1
 40
1
 10
1.317661
 20
1.678400
 30
0.0
 10
1.329474
 20
1.690214
 30
0.0
 10
1.345496
 20
1.696850
 30
0.0
 10
1.362203
 20
1.696850
 30
0.0
  0
SPLINE
  5
18b
100
AcDbEntity
  8
Cut
 62
3
100
AcDbSpline
 70
8
 71
3
 72
8
 73
4
 74
0
 40
0
 40
0
 40
0
 40
0
 40
1
 40
1
 40
1
 40
1
 10
1.362203
 20
1.696850
 30
0.0
 10
1.378909
 20
1.696851
 30
0.0
 10
1.394932
 20
1.690214
 30
0.0
 10
1.406745
 20
1.678401
 30
0.0
  0
SPLINE
  5
18c
100
AcDbEntity
  8
Cut
 62
3
100
AcDbSpline
 70
8
 71
3
 72
8
 73
4
 74
0
 40
0
 40
0
 40
0
 40
0
 40
1
 40
1
 40
1
 40
1
 10
1.406745
 20
1.678401
 30
0.0
 10
1.418558
 20
1.666587
 30
0.0
 10
1.425195
 20
1.650565
 30
0.0
 10
1.425195
 20
1.633858
 30
0.0
  0
LINE
  5
18d
100
AcDbEntity
  8
Cut
 62
3
100
AcDbLine
 10
1.425195
 20
1.633858
 30
0.0
 11
1.425195
 21
1.633858
 31
0.0
  0
SPLINE
  5
18e
100
AcDbEntity
  8
Cut
 62
3
100
AcDbSpline
 70
8
 71
3
 72
8
 73
4
 74
0
 40
0
 40
0
 40
0
 40
0
 40
1
 40
1
 40
1
 40
1
 10
2.401577
 20
1.633858
 30
0.0
 10
2.401576
 20
1.599069
 30
0.0
 10
2.373374
 20
1.570867
 30
0.0
 10
2.338585
 20
1.570867
 30
0.0
  0
SPLINE
  5
18f
100
AcDbEntity
  8
Cut
 62
3
100
AcDbSpline
 70
8
 71
3
 72
8
 73
4
 74
0
 40
0
 40
0
 40
0
 40
0
 40
1
 40
1
 40
1
 40
1
 10
2.338585
 20
1.570867
 30
0.0
 10
2.303796
 20
1.570867
 30
0.0
 10
2.275593
 20
1.599069
 30
0.0
 10
2.275593
 20
1.633858
 30
0.0
  0
SPLINE
  5
190
100
AcDbEntity
  8
Cut
 62
3
100
AcDbSpline
 70
8
 71
3
 72
8
 73
4
 74
0
 40
0
 40
0
 40
0
 40
0
 40
1
 40
1
 40
1
 40
1
 10
2.275593
 20
1.633858
 30
0.0
 10
2.275593
 20
1.650565
 30
0.0
 10
2.282229
 20
1.666587
 30
0.0
 10
2.294043
 20
1.678400
 30
0.0
  0
SPLINE
  5
191
100
AcDbEntity
  8
Cut
 62
3
100
AcDbSpline
 70
8
 71
3
 72
8
 73
4
 74
0
 40
0
 40
0
 40
0
 40
0
 40
1
 40
1
 40
1
 40
1
 10
2.294043
 20
1.678400
 30
0.0
 10
2.305856
 20
1.690214
 30
0.0
 10
2.321878
 20
1.696850
 30
0.0
 10
2.338585
 20
1.696850
 30
0.0
  0
SPLINE
  5
192
100
AcDbEntity
  8
Cut
 62
3
100
AcDbSpline
 70
8
 71
3
 72
8
 73
4
 74
0
 40
0
 40
0
 40
0
 40
0
 40
1
 40
1
 40
1
 40
1
 10
2.338585
 20
1.696850
 30
0.0
 10
2.355291
 20
1.696851
 30
0.0
 10
2.371314
 20
1.690214
 30
0.0
 10
2.383127
 20
1.678401
 30
0.0
  0
SPLINE
  5
193
100
AcDbEntity
  8
Cut
 62
3
100
AcDbSpline
 70
8
 71
3
 72
8
 73
4
 74
0
 40
0
 40
0
 40
0
 40
0
 40
1
 40
1
 40
1
 40
1
 10
2.383127
 20
1.678401
 30
0.0
 10
2.394940
 20
1.666587
 30
0.0
 10
2.401577
 20
1.650565
 30
0.0
 10
2.401577
 20
1.633858
 30
0.0
  0
LINE
  5
194
100
AcDbEntity
  8
Cut
 62
3
100
AcDbLine
 10
2.401577
 20
1.633858
 30
0.0
 11
2.401577
 21
1.633858
 31
0.0
  0
LINE
  5
195
100
AcDbEntity
  8
Cut
 62
3
100
AcDbLine
 10
1.476378
 20
2.519685
 30
0.0
 11
2.224410
 21
2.519685
 31
0.0
  0
LINE
  5
196
100
AcDbEntity
  8
Cut
 62
3
100
AcDbLine
 10
2.224410
 20
2.519685
 30
0.0
 11
2.224410
 21
2.086615
 31
0.0
  0
LINE
  5
197
100
AcDbEntity
  8
Cut
 62
3
100
AcDbLine
 10
2.224410
 20
2.086615
 30
0.0
 11
1.476378
 21
2.086615
 31
0.0
  0
LINE
  5
198
100
AcDbEntity
  8
Cut
 62
3
100
AcDbLine
 10
1.476378
 20
2.086615
 30
0.0
 11
1.476378
 21
2.519685
 31
0.0
  0
SPLINE
  5
199
100
AcDbEntity
  8
Cut
 62
3
100
AcDbSpline
 70
8
 71
3
 72
8
 73
4
 74
0
 40
0
 40
0
 40
0
 40
0
 40
1
 40
1
 40
1
 40
1
 10
1.425195
 20
2.303150
 30
0.0
 10
1.425194
 20
2.268360
 30
0.0
 10
1.396992
 20
2.240158
 30
0.0
 10
1.362203
 20
2.240158
 30
0.0
  0
SPLINE
  5
19a
100
AcDbEntity
  8
Cut
 62
3
100
AcDbSpline
 70
8
 71
3
 72
8
 73
4
 74
0
 40
0
 40
0
 40
0
 40
0
 40
1
 40
1
 40
1
 40
1
 10
1.362203
 20
2.240158
 30
0.0
 10
1.327414
 20
2.240158
 30
0.0
 10
1.299211
 20
2.268360
 30
0.0
 10
1.299211
 20
2.303150
 30
0.0
  0
SPLINE
  5
19b
100
AcDbEntity
  8
Cut
 62
3
100
AcDbSpline
 70
8
 71
3
 72
8
 73
4
 74
0
 40
0
 40
0
 40
0
 40
0
 40
1
 40
1
 40
1
 40
1
 10
1.299211
 20
2.303150
 30
0.0
 10
1.299211
 20
2.319856
 30
0.0
 10
1.305847
 20
2.335878
 30
0.0
 10
1.317661
 20
2.347692
 30
0.0
  0
SPLINE
  5
19c
100
AcDbEntity
  8
Cut
 62
3
100
AcDbSpline
 70
8
 71
3
 72
8
 73
4
 74
0
 40
0
 40
0
 40
0
 40
0
 40
1
 40
1
 40
1
 40
1
 10
1.317661
 20
2.347692
 30
0.0
 10
1.329474
 20
2.359505
 30
0.0
 10
1.345496
 20
2.366142
 30
0.0
 10
1.362203
 20
2.366142
 30
0.0
  0
SPLINE
  5
19d
100
AcDbEntity
  8
Cut
 62
3
100
AcDbSpline
 70
8
 71
3
 72
8
 73
4
 74
0
 40
0
 40
0
 40
0
 40
0
 40
1
 40
1
 40
1
 40
1
 10
1.362203
 20
2.366142
 30
0.0
 10
1.378909
 20
2.366142
 30
0.0
 10
1.394932
 20
2.359505
 30
0.0
 10
1.406745
 20
2.347692
 30
0.0
  0
SPLINE
  5
19e
100
AcDbEntity
  8
Cut
 62
3
100
AcDbSpline
 70
8
 71
3
 72
8
 73
4
 74
0
 40
0
 40
0
 40
0
 40
0
 40
1
 40
1
 40
1
 40
1
 10
1.406745
 20
2.347692
 30
0.0
 10
1.418558
 20
2.335878
 30
0.0
 10
1.425195
 20
2.319856
 30
0.0
 10
1.425195
 20
2.303150
 30
0.0
  0
LINE
  5
19f
100
AcDbEntity
  8
Cut
 62
3
100
AcDbLine
 10
1.425195
 20
2.303150
 30
0.0
 11
1.425195
 21
2.303150
 31
0.0
  0
SPLINE
  5
1a0
100
AcDbEntity
  8
Cut
 62
3
100
AcDbSpline
 70
8
 71
3
 72
8
 73
4
 74
0
 40
0
 40
0
 40
0
 40
0
 40
1
 40
1
 40
1
 40
1
 10
2.401577
 20
2.303150
 30
0.0
 10
2.401576
 20
2.268360
 30
0.0
 10
2.373374
 20
2.240158
 30
0.0
 10
2.338585
 20
2.240158
 30
0.0
  0
SPLINE
  5
1a1
100
AcDbEntity
  8
Cut
 62
3
100
AcDbSpline
 70
8
 71
3
 72
8
 73
4
 74
0
 40
0
 40
0
 40
0
 40
0
 40
1
 40
1
 40
1
 40
1
 10
2.338585
 20
2.240158
 30
0.0
 10
2.303796
 20
2.240158
 30
0.0
 10
2.275593
 20
2.268360
 30
0.0
 10
2.275593
 20
2.303150
 30
0.0
  0
SPLINE
  5
1a2
100
AcDbEntity
  8
Cut
 62
3
100
AcDbSpline
 70
8
 71
3
 72
8
 73
4
 74
0
 40
0
 40
0
 40
0
 40
0
 40
1
 40
1
 40
1
 40
1
 10
2.275593
 20
2.303150
 30
0.0
 10
2.275593
 20
2.319856
 30
0.0
 10
2.282229
 20
2.335878
 30
0.0
 10
2.294043
 20
2.347692
 30
0.0
  0
SPLINE
  5
1a3
100
AcDbEntity
  8
Cut
 62
3
100
AcDbSpline
 70
8
 71
3
 72
8
 73
4
 74
0
 40
0
 40
0
 40
0
 40
0
 40
1
 40
1
 40
1
 40
1
 10
2.294043
 20
2.347692
 30
0.0
 10
2.305856
 20
2.359505
 30
0.0
 10
2.321878
 20
2.366142
 30
0.0
 10
2.338585
 20
2.366142
 30
0.0
  0
SPLINE
  5
1a4
100
AcDbEntity
  8
Cut
 62
3
100
AcDbSpline
 70
8
 71
3
 72
8
 73
4
 74
0
 40
0
 40
0
 40
0
 40
0
 40
1
 40
1
 40
1
 40
1
 10
2.338585
 20
2.366142
 30
0.0
 10
2.355291
 20
2.366142
 30
0.0
 10
2.371314
 20
2.359505
 30
0.0
 10
2.383127
 20
2.347692
 30
0.0
  0
SPLINE
  5
1a5
100
AcDbEntity
  8
Cut
 62
3
100
AcDbSpline
 70
8
 71
3
 72
8
 73
4
 74
0
 40
0
 40
0
 40
0
 40
0
 40
1
 40
1
 40
1
 40
1
 10
2.383127
 20
2.347692
 30
0.0
 10
2.394940
 20
2.335878
 30
0.0
 10
2.401577
 20
2.319856
 30
0.0
 10
2.401577
 20
2.303150
 30
0.0
  0
LINE
  5
1a6
100
AcDbEntity
  8
Cut
 62
3
100
AcDbLine
 10
2.401577
 20
2.303150
 30
0.0
 11
2.401577
 21
2.303150
 31
0.0
  0
LINE
  5
1a7
100
AcDbEntity
  8
Cut
 62
3
100
AcDbLine
 10
1.476378
 20
3.188977
 30
0.0
 11
2.224410
 21
3.188977
 31
0.0
  0
LINE
  5
1a8
100
AcDbEntity
  8
Cut
 62
3
100
AcDbLine
 10
2.224410
 20
3.188977
 30
0.0
 11
2.224410
 21
2.755906
 31
0.0
  0
LINE
  5
1a9
100
AcDbEntity
  8
Cut
 62
3
100
AcDbLine
 10
2.224410
 20
2.755906
 30
0.0
 11
1.476378
 21
2.755906
 31
0.0
  0
LINE
  5
1aa
100
AcDbEntity
  8
Cut
 62
3
100
AcDbLine
 10
1.476378
 20
2.755906
 30
0.0
 11
1.476378
 21
3.188977
 31
0.0
  0
SPLINE
  5
1ab
100
AcDbEntity
  8
Cut
 62
3
100
AcDbSpline
 70
8
 71
3
 72
8
 73
4
 74
0
 40
0
 40
0
 40
0
 40
0
 40
1
 40
1
 40
1
 40
1
 10
1.425195
 20
2.972441
 30
0.0
 10
1.425194
 20
2.937652
 30
0.0
 10
1.396992
 20
2.909450
 30
0.0
 10
1.362203
 20
2.909450
 30
0.0
  0
SPLINE
  5
1ac
100
AcDbEntity
  8
Cut
 62
3
100
AcDbSpline
 70
8
 71
3
 72
8
 73
4
 74
0
 40
0
 40
0
 40
0
 40
0
 40
1
 40
1
 40
1
 40
1
 10
1.362203
 20
2.909450
 30
0.0
 10
1.327414
 20
2.909450
 30
0.0
 10
1.299211
 20
2.937652
 30
0.0
 10
1.299211
 20
2.972441
 30
0.0
  0
SPLINE
  5
1ad
100
AcDbEntity
  8
Cut
 62
3
100
AcDbSpline
 70
8
 71
3
 72
8
 73
4
 74
0
 40
0
 40
0
 40
0
 40
0
 40
1
 40
1
 40
1
 40
1
 10
1.299211
 20
2.972441
 30
0.0
 10
1.299211
 20
2.989148
 30
0.0
 10
1.305847
 20
3.005170
 30
0.0
 10
1.317661
 20
3.016983
 30
0.0
  0
SPLINE
  5
1ae
100
AcDbEntity
  8
Cut
 62
3
100
AcDbSpline
 70
8
 71
3
 72
8
 73
4
 74
0
 40
0
 40
0
 40
0
 40
0
 40
1
 40
1
 40
1
 40
1
 10
1.317661
 20
3.016983
 30
0.0
 10
1.329474
 20
3.028796
 30
0.0
 10
1.345496
 20
3.035433
 30
0.0
 10
1.362203
 20
3.035433
 30
0.0
  0
SPLINE
  5
1af
100
AcDbEntity
  8
Cut
 62
3
100
AcDbSpline
 70
8
 71
3
 72
8
 73
4
 74
0
 40
0
 40
0
 40
0
 40
0
 40
1
 40
1
 40
1
 40
1
 10
1.362203
 20
3.035433
 30
0.0
 10
1.378909
 20
3.035433
 30
0.0
 10
1.394932
 20
3.028796
 30
0.0
 10
1.406745
 20
3.016983
 30
0.0
  0
SPLINE
  5
1b0
100
AcDbEntity
  8
Cut
 62
3
100
AcDbSpline
 70
8
 71
3
 72
8
 73
4
 74
0
 40
0
 40
0
 40
0
 40
0
 40
1
 40
1
 40
1
 40
1
 10
1.406745
 20
3.016983
 30
0.0
 10
1.418558
 20
3.005170
 30
0.0
 10
1.425195
 20
2.989148
 30
0.0
 10
1.425195
 20
2.972441
 30
0.0
  0
LINE
  5
1b1
100
AcDbEntity
  8
Cut
 62
3
100
AcDbLine
 10
1.425195
 20
2.972441
 30
0.0
 11
1.425195
 21
2.972441
 31
0.0
  0
SPLINE
  5
1b2
100
AcDbEntity
  8
Cut
 62
3
100
AcDbSpline
 70
8
 71
3
 72
8
 73
4
 74
0
 40
0
 40
0
 40
0
 40
0
 40
1
 40
1
 40
1
 40
1
 10
2.401577
 20
2.972441
 30
0.0
 10
2.401576
 20
2.937652
 30
0.0
 10
2.373374
 20
2.909450
 30
0.0
 10
2.338585
 20
2.909450
 30
0.0
  0
SPLINE
  5
1b3
100
AcDbEntity
  8
Cut
 62
3
100
AcDbSpline
 70
8
 71
3
 72
8
 73
4
 74
0
 40
0
 40
0
 40
0
 40
0
 40
1
 40
1
 40
1
 40
1
 10
2.338585
 20
2.909450
 30
0.0
 10
2.303796
 20
2.909450
 30
0.0
 10
2.275593
 20
2.937652
 30
0.0
 10
2.275593
 20
2.972441
 30
0.0
  0
SPLINE
  5
1b4
100
AcDbEntity
  8
Cut
 62
3
100
AcDbSpline
 70
8
 71
3
 72
8
 73
4
 74
0
 40
0
 40
0
 40
0
 40
0
 40
1
 40
1
 40
1
 40
1
 10
2.275593
 20
2.972441
 30
0.0
 10
2.275593
 20
2.989148
 30
0.0
 10
2.282229
 20
3.005170
 30
0.0
 10
2.294043
 20
3.016983
 30
0.0
  0
SPLINE
  5
1b5
100
AcDbEntity
  8
Cut
 62
3
100
AcDbSpline
 70
8
 71
3
 72
8
 73
4
 74
0
 40
0
 40
0
 40
0
 40
0
 40
1
 40
1
 40
1
 40
1
 10
2.294043
 20
3.016983
 30
0.0
 10
2.305856
 20
3.028796
 30
0.0
 10
2.321878
 20
3.035433
 30
0.0
 10
2.338585
 20
3.035433
 30
0.0
  0
SPLINE
  5
1b6
100
AcDbEntity
  8
Cut
 62
3
100
AcDbSpline
 70
8
 71
3
 72
8
 73
4
 74
0
 40
0
 40
0
 40
0
 40
0
 40
1
 40
1
 40
1
 40
1
 10
2.338585
 20
3.035433
 30
0.0
 10
2.355291
 20
3.035433
 30
0.0
 10
2.371314
 20
3.028797
 30
0.0
 10
2.383127
 20
3.016983
 30
0.0
  0
SPLINE
  5
1b7
100
AcDbEntity
  8
Cut
 62
3
100
AcDbSpline
 70
8
 71
3
 72
8
 73
4
 74
0
 40
0
 40
0
 40
0
 40
0
 40
1
 40
1
 40
1
 40
1
 10
2.383127
 20
3.016983
 30
0.0
 10
2.394940
 20
3.005170
 30
0.0
 10
2.401577
 20
2.989148
 30
0.0
 10
2.401577
 20
2.972441
 30
0.0
  0
LINE
  5
1b8
100
AcDbEntity
  8
Cut
 62
3
100
AcDbLine
 10
2.401577
 20
2.972441
 30
0.0
 11
2.401577
 21
2.972441
 31
0.0
  0
LINE
  5
1b9
100
AcDbEntity
  8
Cut
 62
3
100
AcDbLine
 10
0.216535
 20
2.519685
 30
0.0
 11
0.964567
 21
2.519685
 31
0.0
  0
LINE
  5
1ba
100
AcDbEntity
  8
Cut
 62
3
100
AcDbLine
 10
0.964567
 20
2.519685
 30
0.0
 11
0.964567
 21
2.086615
 31
0.0
  0
LINE
  5
1bb
100
AcDbEntity
  8
Cut
 62
3
100
AcDbLine
 10
0.964567
 20
2.086615
 30
0.0
 11
0.216535
 21
2.086615
 31
0.0
  0
LINE
  5
1bc
100
AcDbEntity
  8
Cut
 62
3
100
AcDbLine
 10
0.216535
 20
2.086615
 30
0.0
 11
0.216535
 21
2.519685
 31
0.0
  0
SPLINE
  5
1bd
100
AcDbEntity
  8
Cut
 62
3
100
AcDbSpline
 70
8
 71
3
 72
8
 73
4
 74
0
 40
0
 40
0
 40
0
 40
0
 40
1
 40
1
 40
1
 40
1
 10
0.165352
 20
2.303150
 30
0.0
 10
0.165352
 20
2.268360
 30
0.0
 10
0.137149
 20
2.240158
 30
0.0
 10
0.102360
 20
2.240158
 30
0.0
  0
SPLINE
  5
1be
100
AcDbEntity
  8
Cut
 62
3
100
AcDbSpline
 70
8
 71
3
 72
8
 73
4
 74
0
 40
0
 40
0
 40
0
 40
0
 40
1
 40
1
 40
1
 40
1
 10
0.102360
 20
2.240158
 30
0.0
 10
0.067571
 20
2.240158
 30
0.0
 10
0.039369
 20
2.268360
 30
0.0
 10
0.039368
 20
2.303150
 30
0.0
  0
SPLINE
  5
1bf
100
AcDbEntity
  8
Cut
 62
3
100
AcDbSpline
 70
8
 71
3
 72
8
 73
4
 74
0
 40
0
 40
0
 40
0
 40
0
 40
1
 40
1
 40
1
 40
1
 10
0.039368
 20
2.303150
 30
0.0
 10
0.039368
 20
2.319856
 30
0.0
 10
0.046005
 20
2.335878
 30
0.0
 10
0.057818
 20
2.347692
 30
0.0
  0
SPLINE
  5
1c0
100
AcDbEntity
  8
Cut
 62
3
100
AcDbSpline
 70
8
 71
3
 72
8
 73
4
 74
0
 40
0
 40
0
 40
0
 40
0
 40
1
 40
1
 40
1
 40
1
 10
0.057818
 20
2.347692
 30
0.0
 10
0.069631
 20
2.359505
 30
0.0
 10
0.085654
 20
2.366142
 30
0.0
 10
0.102360
 20
2.366142
 30
0.0
  0
SPLINE
  5
1c1
100
AcDbEntity
  8
Cut
 62
3
100
AcDbSpline
 70
8
 71
3
 72
8
 73
4
 74
0
 40
0
 40
0
 40
0
 40
0
 40
1
 40
1
 40
1
 40
1
 10
0.102360
 20
2.366142
 30
0.0
 10
0.119067
 20
2.366142
 30
0.0
 10
0.135089
 20
2.359505
 30
0.0
 10
0.146902
 20
2.347692
 30
0.0
  0
SPLINE
  5
1c2
100
AcDbEntity
  8
Cut
 62
3
100
AcDbSpline
 70
8
 71
3
 72
8
 73
4
 74
0
 40
0
 40
0
 40
0
 40
0
 40
1
 40
1
 40
1
 40
1
 10
0.146902
 20
2.347692
 30
0.0
 10
0.158716
 20
2.335878
 30
0.0
 10
0.165352
 20
2.319856
 30
0.0
 10
0.165352
 20
2.303150
 30
0.0
  0
LINE
  5
1c3
100
AcDbEntity
  8
Cut
 62
3
100
AcDbLine
 10
0.165352
 20
2.303150
 30
0.0
 11
0.165352
 21
2.303150
 31
0.0
  0
SPLINE
  5
1c4
100
AcDbEntity
  8
Cut
 62
3
100
AcDbSpline
 70
8
 71
3
 72
8
 73
4
 74
0
 40
0
 40
0
 40
0
 40
0
 40
1
 40
1
 40
1
 40
1
 10
1.141734
 20
2.303150
 30
0.0
 10
1.141734
 20
2.268360
 30
0.0
 10
1.113531
 20
2.240158
 30
0.0
 10
1.078742
 20
2.240158
 30
0.0
  0
SPLINE
  5
1c5
100
AcDbEntity
  8
Cut
 62
3
100
AcDbSpline
 70
8
 71
3
 72
8
 73
4
 74
0
 40
0
 40
0
 40
0
 40
0
 40
1
 40
1
 40
1
 40
1
 10
1.078742
 20
2.240158
 30
0.0
 10
1.043953
 20
2.240158
 30
0.0
 10
1.015751
 20
2.268360
 30
0.0
 10
1.015750
 20
2.303150
 30
0.0
  0
SPLINE
  5
1c6
100
AcDbEntity
  8
Cut
 62
3
100
AcDbSpline
 70
8
 71
3
 72
8
 73
4
 74
0
 40
0
 40
0
 40
0
 40
0
 40
1
 40
1
 40
1
 40
1
 10
1.015750
 20
2.303150
 30
0.0
 10
1.015750
 20
2.319856
 30
0.0
 10
1.022387
 20
2.335878
 30
0.0
 10
1.034200
 20
2.347692
 30
0.0
  0
SPLINE
  5
1c7
100
AcDbEntity
  8
Cut
 62
3
100
AcDbSpline
 70
8
 71
3
 72
8
 73
4
 74
0
 40
0
 40
0
 40
0
 40
0
 40
1
 40
1
 40
1
 40
1
 10
1.034200
 20
2.347692
 30
0.0
 10
1.046013
 20
2.359505
 30
0.0
 10
1.062036
 20
2.366142
 30
0.0
 10
1.078742
 20
2.366142
 30
0.0
  0
SPLINE
  5
1c8
100
AcDbEntity
  8
Cut
 62
3
100
AcDbSpline
 70
8
 71
3
 72
8
 73
4
 74
0
 40
0
 40
0
 40
0
 40
0
 40
1
 40
1
 40
1
 40
1
 10
1.078742
 20
2.366142
 30
0.0
 10
1.095449
 20
2.366142
 30
0.0
 10
1.111471
 20
2.359505
 30
0.0
 10
1.123284
 20
2.347692
 30
0.0
  0
SPLINE
  5
1c9
100
AcDbEntity
  8
Cut
 62
3
100
AcDbSpline
 70
8
 71
3
 72
8
 73
4
 74
0
 40
0
 40
0
 40
0
 40
0
 40
1
 40
1
 40
1
 40
1
 10
1.123284
 20
2.347692
 30
0.0
 10
1.135098
 20
2.335878
 30
0.0
 10
1.141734
 20
2.319856
 30
0.0
 10
1.141734
 20
2.303150
 30
0.0
  0
LINE
  5
1ca
100
AcDbEntity
  8
Cut
 62
3
100
AcDbLine
 10
1.141734
 20
2.303150
 30
0.0
 11
1.141734
 21
2.303150
 31
0.0
  0
LINE
  5
1cb
100
AcDbEntity
  8
Cut
 62
3
100
AcDbLine
 10
0.216535
 20
3.188977
 30
0.0
 11
0.964567
 21
3.188977
 31
0.0
  0
LINE
  5
1cc
100
AcDbEntity
  8
Cut
 62
3
100
AcDbLine
 10
0.964567
 20
3.188977
 30
0.0
 11
0.964567
 21
2.755906
 31
0.0
  0
LINE
  5
1cd
100
AcDbEntity
  8
Cut
 62
3
100
AcDbLine
 10
0.964567
 20
2.755906
 30
0.0
 11
0.216535
 21
2.755906
 31
0.0
  0
LINE
  5
1ce
100
AcDbEntity
  8
Cut
 62
3
100
AcDbLine
 10
0.216535
 20
2.755906
 30
0.0
 11
0.216535
 21
3.188977
 31
0.0
  0
SPLINE
  5
1cf
100
AcDbEntity
  8
Cut
 62
3
100
AcDbSpline
 70
8
 71
3
 72
8
 73
4
 74
0
 40
0
 40
0
 40
0
 40
0
 40
1
 40
1
 40
1
 40
1
 10
0.165352
 20
2.972441
 30
0.0
 10
0.165352
 20
2.937652
 30
0.0
 10
0.137149
 20
2.909450
 30
0.0
 10
0.102360
 20
2.909450
 30
0.0
  0
SPLINE
  5
1d0
100
AcDbEntity
  8
Cut
 62
3
100
AcDbSpline
 70
8
 71
3
 72
8
 73
4
 74
0
 40
0
 40
0
 40
0
 40
0
 40
1
 40
1
 40
1
 40
1
 10
0.102360
 20
2.909450
 30
0.0
 10
0.067571
 20
2.909450
 30
0.0
 10
0.039369
 20
2.937652
 30
0.0
 10
0.039368
 20
2.972441
 30
0.0
  0
SPLINE
  5
1d1
100
AcDbEntity
  8
Cut
 62
3
100
AcDbSpline
 70
8
 71
3
 72
8
 73
4
 74
0
 40
0
 40
0
 40
0
 40
0
 40
1
 40
1
 40
1
 40
1
 10
0.039368
 20
2.972441
 30
0.0
 10
0.039368
 20
2.989148
 30
0.0
 10
0.046005
 20
3.005170
 30
0.0
 10
0.057818
 20
3.016983
 30
0.0
  0
SPLINE
  5
1d2
100
AcDbEntity
  8
Cut
 62
3
100
AcDbSpline
 70
8
 71
3
 72
8
 73
4
 74
0
 40
0
 40
0
 40
0
 40
0
 40
1
 40
1
 40
1
 40
1
 10
0.057818
 20
3.016983
 30
0.0
 10
0.069631
 20
3.028796
 30
0.0
 10
0.085654
 20
3.035433
 30
0.0
 10
0.102360
 20
3.035433
 30
0.0
  0
SPLINE
  5
1d3
100
AcDbEntity
  8
Cut
 62
3
100
AcDbSpline
 70
8
 71
3
 72
8
 73
4
 74
0
 40
0
 40
0
 40
0
 40
0
 40
1
 40
1
 40
1
 40
1
 10
0.102360
 20
3.035433
 30
0.0
 10
0.119067
 20
3.035433
 30
0.0
 10
0.135089
 20
3.028796
 30
0.0
 10
0.146902
 20
3.016983
 30
0.0
  0
SPLINE
  5
1d4
100
AcDbEntity
  8
Cut
 62
3
100
AcDbSpline
 70
8
 71
3
 72
8
 73
4
 74
0
 40
0
 40
0
 40
0
 40
0
 40
1
 40
1
 40
1
 40
1
 10
0.146902
 20
3.016983
 30
0.0
 10
0.158716
 20
3.005170
 30
0.0
 10
0.165352
 20
2.989148
 30
0.0
 10
0.165352
 20
2.972441
 30
0.0
  0
LINE
  5
1d5
100
AcDbEntity
  8
Cut
 62
3
100
AcDbLine
 10
0.165352
 20
2.972441
 30
0.0
 11
0.165352
 21
2.972441
 31
0.0
  0
SPLINE
  5
1d6
100
AcDbEntity
  8
Cut
 62
3
100
AcDbSpline
 70
8
 71
3
 72
8
 73
4
 74
0
 40
0
 40
0
 40
0
 40
0
 40
1
 40
1
 40
1
 40
1
 10
1.141734
 20
2.972441
 30
0.0
 10
1.141734
 20
2.937652
 30
0.0
 10
1.113531
 20
2.909450
 30
0.0
 10
1.078742
 20
2.909450
 30
0.0
  0
SPLINE
  5
1d7
100
AcDbEntity
  8
Cut
 62
3
100
AcDbSpline
 70
8
 71
3
 72
8
 73
4
 74
0
 40
0
 40
0
 40
0
 40
0
 40
1
 40
1
 40
1
 40
1
 10
1.078742
 20
2.909450
 30
0.0
 10
1.043953
 20
2.909450
 30
0.0
 10
1.015751
 20
2.937652
 30
0.0
 10
1.015750
 20
2.972441
 30
0.0
  0
SPLINE
  5
1d8
100
AcDbEntity
  8
Cut
 62
3
100
AcDbSpline
 70
8
 71
3
 72
8
 73
4
 74
0
 40
0
 40
0
 40
0
 40
0
 40
1
 40
1
 40
1
 40
1
 10
1.015750
 20
2.972441
 30
0.0
 10
1.015750
 20
2.989148
 30
0.0
 10
1.022387
 20
3.005170
 30
0.0
 10
1.034200
 20
3.016983
 30
0.0
  0
SPLINE
  5
1d9
100
AcDbEntity
  8
Cut
 62
3
100
AcDbSpline
 70
8
 71
3
 72
8
 73
4
 74
0
 40
0
 40
0
 40
0
 40
0
 40
1
 40
1
 40
1
 40
1
 10
1.034200
 20
3.016983
 30
0.0
 10
1.046013
 20
3.028796
 30
0.0
 10
1.062036
 20
3.035433
 30
0.0
 10
1.078742
 20
3.035433
 30
0.0
  0
SPLINE
  5
1da
100
AcDbEntity
  8
Cut
 62
3
100
AcDbSpline
 70
8
 71
3
 72
8
 73
4
 74
0
 40
0
 40
0
 40
0
 40
0
 40
1
 40
1
 40
1
 40
1
 10
1.078742
 20
3.035433
 30
0.0
 10
1.095449
 20
3.035433
 30
0.0
 10
1.111471
 20
3.028797
 30
0.0
 10
1.123284
 20
3.016983
 30
0.0
  0
SPLINE
  5
1db
100
AcDbEntity
  8
Cut
 62
3
100
AcDbSpline
 70
8
 71
3
 72
8
 73
4
 74
0
 40
0
 40
0
 40
0
 40
0
 40
1
 40
1
 40
1
 40
1
 10
1.123284
 20
3.016983
 30
0.0
 10
1.135098
 20
3.005170
 30
0.0
 10
1.141734
 20
2.989148
 30
0.0
 10
1.141734
 20
2.972441
 30
0.0
  0
LINE
  5
1dc
100
AcDbEntity
  8
Cut
 62
3
100
AcDbLine
 10
1.141734
 20
2.972441
 30
0.0
 11
1.141734
 21
2.972441
 31
0.0
  0
LINE
  5
1dd
100
AcDbEntity
  8
Etch
 62
1
100
AcDbLine
 10
0.091643
 20
0.150869
 30
0.0
 11
0.102754
 21
0.156424
 31
0.0
  0
LINE
  5
1de
100
AcDbEntity
  8
Etch
 62
1
100
AcDbLine
 10
0.102754
 20
0.156424
 30
0.0
 11
0.119420
 21
0.173091
 31
0.0
  0
LINE
  5
1df
100
AcDbEntity
  8
Etch
 62
1
100
AcDbLine
 10
0.119420
 20
0.173091
 30
0.0
 11
0.119420
 21
0.056424
 31
0.0
  0
LINE
  5
1e0
100
AcDbEntity
  8
Etch
 62
1
100
AcDbLine
 10
1.336162
 20
0.817957
 30
0.0
 11
1.336162
 21
0.823513
 31
0.0
  0
LINE
  5
1e1
100
AcDbEntity
  8
Etch
 62
1
100
AcDbLine
 10
1.336162
 20
0.823513
 30
0.0
 11
1.341717
 21
0.834624
 31
0.0
  0
LINE
  5
1e2
100
AcDbEntity
  8
Etch
 62
1
100
AcDbLine
 10
1.341717
 20
0.834624
 30
0.0
 11
1.347273
 21
0.840179
 31
0.0
  0
LINE
  5
1e3
100
AcDbEntity
  8
Etch
 62
1
100
AcDbLine
 10
1.347273
 20
0.840179
 30
0.0
 11
1.358384
 21
0.845735
 31
0.0
  0
LINE
  5
1e4
100
AcDbEntity
  8
Etch
 62
1
100
AcDbLine
 10
1.358384
 20
0.845735
 30
0.0
 11
1.380606
 21
0.845735
 31
0.0
  0
LINE
  5
1e5
100
AcDbEntity
  8
Etch
 62
1
100
AcDbLine
 10
1.380606
 20
0.845735
 30
0.0
 11
1.391717
 21
0.840179
 31
0.0
  0
LINE
  5
1e6
100
AcDbEntity
  8
Etch
 62
1
100
AcDbLine
 10
1.391717
 20
0.840179
 30
0.0
 11
1.397273
 21
0.834624
 31
0.0
  0
LINE
  5
1e7
100
AcDbEntity
  8
Etch
 62
1
100
AcDbLine
 10
1.397273
 20
0.834624
 30
0.0
 11
1.402828
 21
0.823513
 31
0.0
  0
LINE
  5
1e8
100
AcDbEntity
  8
Etch
 62
1
100
AcDbLine
 10
1.402828
 20
0.823513
 30
0.0
 11
1.402828
 21
0.812401
 31
0.0
  0
LINE
  5
1e9
100
AcDbEntity
  8
Etch
 62
1
100
AcDbLine
 10
1.402828
 20
0.812401
 30
0.0
 11
1.397273
 21
0.801290
 31
0.0
  0
LINE
  5
1ea
100
AcDbEntity
  8
Etch
 62
1
100
AcDbLine
 10
1.397273
 20
0.801290
 30
0.0
 11
1.386162
 21
0.784624
 31
0.0
  0
LINE
  5
1eb
100
AcDbEntity
  8
Etch
 62
1
100
AcDbLine
 10
1.386162
 20
0.784624
 30
0.0
 11
1.330606
 21
0.729068
 31
0.0
  0
LINE
  5
1ec
100
AcDbEntity
  8
Etch
 62
1
100
AcDbLine
 10
1.330606
 20
0.729068
 30
0.0
 11
1.408384
 21
0.729068
 31
0.0
  0
LINE
  5
1ed
100
AcDbEntity
  8
Etch
 62
1
100
AcDbLine
 10
0.078375
 20
0.845735
 30
0.0
 11
0.139486
 21
0.845735
 31
0.0
  0
LINE
  5
1ee
100
AcDbEntity
  8
Etch
 62
1
100
AcDbLine
 10
0.139486
 20
0.845735
 30
0.0
 11
0.106153
 21
0.801290
 31
0.0
  0
LINE
  5
1ef
100
AcDbEntity
  8
Etch
 62
1
100
AcDbLine
 10
0.106153
 20
0.801290
 30
0.0
 11
0.122819
 21
0.801290
 31
0.0
  0
LINE
  5
1f0
100
AcDbEntity
  8
Etch
 62
1
100
AcDbLine
 10
0.122819
 20
0.801290
 30
0.0
 11
0.133930
 21
0.795735
 31
0.0
  0
LINE
  5
1f1
100
AcDbEntity
  8
Etch
 62
1
100
AcDbLine
 10
0.133930
 20
0.795735
 30
0.0
 11
0.139486
 21
0.790179
 31
0.0
  0
LINE
  5
1f2
100
AcDbEntity
  8
Etch
 62
1
100
AcDbLine
 10
0.139486
 20
0.790179
 30
0.0
 11
0.145041
 21
0.773513
 31
0.0
  0
LINE
  5
1f3
100
AcDbEntity
  8
Etch
 62
1
100
AcDbLine
 10
0.145041
 20
0.773513
 30
0.0
 11
0.145041
 21
0.762401
 31
0.0
  0
LINE
  5
1f4
100
AcDbEntity
  8
Etch
 62
1
100
AcDbLine
 10
0.145041
 20
0.762401
 30
0.0
 11
0.139486
 21
0.745735
 31
0.0
  0
LINE
  5
1f5
100
AcDbEntity
  8
Etch
 62
1
100
AcDbLine
 10
0.139486
 20
0.745735
 30
0.0
 11
0.128375
 21
0.734624
 31
0.0
  0
LINE
  5
1f6
100
AcDbEntity
  8
Etch
 62
1
100
AcDbLine
 10
0.128375
 20
0.734624
 30
0.0
 11
0.111708
 21
0.729068
 31
0.0
  0
LINE
  5
1f7
100
AcDbEntity
  8
Etch
 62
1
100
AcDbLine
 10
0.111708
 20
0.729068
 30
0.0
 11
0.095041
 21
0.729068
 31
0.0
  0
LINE
  5
1f8
100
AcDbEntity
  8
Etch
 62
1
100
AcDbLine
 10
0.095041
 20
0.729068
 30
0.0
 11
0.078375
 21
0.734624
 31
0.0
  0
LINE
  5
1f9
100
AcDbEntity
  8
Etch
 62
1
100
AcDbLine
 10
0.078375
 20
0.734624
 30
0.0
 11
0.072819
 21
0.740179
 31
0.0
  0
LINE
  5
1fa
100
AcDbEntity
  8
Etch
 62
1
100
AcDbLine
 10
0.072819
 20
0.740179
 30
0.0
 11
0.067264
 21
0.751290
 31
0.0
  0
LINE
  5
1fb
100
AcDbEntity
  8
Etch
 62
1
100
AcDbLine
 10
1.382730
 20
1.514219
 30
0.0
 11
1.327174
 21
1.436441
 31
0.0
  0
LINE
  5
1fc
100
AcDbEntity
  8
Etch
 62
1
100
AcDbLine
 10
1.327174
 20
1.436441
 30
0.0
 11
1.410507
 21
1.436441
 31
0.0
  0
LINE
  5
1fd
100
AcDbEntity
  8
Etch
 62
1
100
AcDbLine
 10
1.382730
 20
1.514219
 30
0.0
 11
1.382730
 21
1.397552
 31
0.0
  0
LINE
  5
1fe
100
AcDbEntity
  8
Etch
 62
1
100
AcDbLine
 10
0.133930
 20
1.515026
 30
0.0
 11
0.078375
 21
1.515026
 31
0.0
  0
LINE
  5
1ff
100
AcDbEntity
  8
Etch
 62
1
100
AcDbLine
 10
0.078375
 20
1.515026
 30
0.0
 11
0.072819
 21
1.465026
 31
0.0
  0
LINE
  5
200
100
AcDbEntity
  8
Etch
 62
1
100
AcDbLine
 10
0.072819
 20
1.465026
 30
0.0
 11
0.078375
 21
1.470581
 31
0.0
  0
LINE
  5
201
100
AcDbEntity
  8
Etch
 62
1
100
AcDbLine
 10
0.078375
 20
1.470581
 30
0.0
 11
0.095041
 21
1.476137
 31
0.0
  0
LINE
  5
202
100
AcDbEntity
  8
Etch
 62
1
100
AcDbLine
 10
0.095041
 20
1.476137
 30
0.0
 11
0.111708
 21
1.476137
 31
0.0
  0
LINE
  5
203
100
AcDbEntity
  8
Etch
 62
1
100
AcDbLine
 10
0.111708
 20
1.476137
 30
0.0
 11
0.128375
 21
1.470581
 31
0.0
  0
LINE
  5
204
100
AcDbEntity
  8
Etch
 62
1
100
AcDbLine
 10
0.128375
 20
1.470581
 30
0.0
 11
0.139486
 21
1.459470
 31
0.0
  0
LINE
  5
205
100
AcDbEntity
  8
Etch
 62
1
100
AcDbLine
 10
0.139486
 20
1.459470
 30
0.0
 11
0.145041
 21
1.442804
 31
0.0
  0
LINE
  5
206
100
AcDbEntity
  8
Etch
 62
1
100
AcDbLine
 10
0.145041
 20
1.442804
 30
0.0
 11
0.145041
 21
1.431693
 31
0.0
  0
LINE
  5
207
100
AcDbEntity
  8
Etch
 62
1
100
AcDbLine
 10
0.145041
 20
1.431693
 30
0.0
 11
0.139486
 21
1.415026
 31
0.0
  0
LINE
  5
208
100
AcDbEntity
  8
Etch
 62
1
100
AcDbLine
 10
0.139486
 20
1.415026
 30
0.0
 11
0.128375
 21
1.403915
 31
0.0
  0
LINE
  5
209
100
AcDbEntity
  8
Etch
 62
1
100
AcDbLine
 10
0.128375
 20
1.403915
 30
0.0
 11
0.111708
 21
1.398359
 31
0.0
  0
LINE
  5
20a
100
AcDbEntity
  8
Etch
 62
1
100
AcDbLine
 10
0.111708
 20
1.398359
 30
0.0
 11
0.095041
 21
1.398359
 31
0.0
  0
LINE
  5
20b
100
AcDbEntity
  8
Etch
 62
1
100
AcDbLine
 10
0.095041
 20
1.398359
 30
0.0
 11
0.078375
 21
1.403915
 31
0.0
  0
LINE
  5
20c
100
AcDbEntity
  8
Etch
 62
1
100
AcDbLine
 10
0.078375
 20
1.403915
 30
0.0
 11
0.072819
 21
1.409470
 31
0.0
  0
LINE
  5
20d
100
AcDbEntity
  8
Etch
 62
1
100
AcDbLine
 10
0.072819
 20
1.409470
 30
0.0
 11
0.067264
 21
1.420581
 31
0.0
  0
LINE
  5
20e
100
AcDbEntity
  8
Etch
 62
1
100
AcDbLine
 10
1.396697
 20
2.167651
 30
0.0
 11
1.391142
 21
2.178762
 31
0.0
  0
LINE
  5
20f
100
AcDbEntity
  8
Etch
 62
1
100
AcDbLine
 10
1.391142
 20
2.178762
 30
0.0
 11
1.374475
 21
2.184318
 31
0.0
  0
LINE
  5
210
100
AcDbEntity
  8
Etch
 62
1
100
AcDbLine
 10
1.374475
 20
2.184318
 30
0.0
 11
1.363364
 21
2.184318
 31
0.0
  0
LINE
  5
211
100
AcDbEntity
  8
Etch
 62
1
100
AcDbLine
 10
1.363364
 20
2.184318
 30
0.0
 11
1.346697
 21
2.178762
 31
0.0
  0
LINE
  5
212
100
AcDbEntity
  8
Etch
 62
1
100
AcDbLine
 10
1.346697
 20
2.178762
 30
0.0
 11
1.335586
 21
2.162096
 31
0.0
  0
LINE
  5
213
100
AcDbEntity
  8
Etch
 62
1
100
AcDbLine
 10
1.335586
 20
2.162096
 30
0.0
 11
1.330031
 21
2.134318
 31
0.0
  0
LINE
  5
214
100
AcDbEntity
  8
Etch
 62
1
100
AcDbLine
 10
1.330031
 20
2.134318
 30
0.0
 11
1.330031
 21
2.106540
 31
0.0
  0
LINE
  5
215
100
AcDbEntity
  8
Etch
 62
1
100
AcDbLine
 10
1.330031
 20
2.106540
 30
0.0
 11
1.335586
 21
2.084318
 31
0.0
  0
LINE
  5
216
100
AcDbEntity
  8
Etch
 62
1
100
AcDbLine
 10
1.335586
 20
2.084318
 30
0.0
 11
1.346697
 21
2.073207
 31
0.0
  0
LINE
  5
217
100
AcDbEntity
  8
Etch
 62
1
100
AcDbLine
 10
1.346697
 20
2.073207
 30
0.0
 11
1.363364
 21
2.067651
 31
0.0
  0
LINE
  5
218
100
AcDbEntity
  8
Etch
 62
1
100
AcDbLine
 10
1.363364
 20
2.067651
 30
0.0
 11
1.368920
 21
2.067651
 31
0.0
  0
LINE
  5
219
100
AcDbEntity
  8
Etch
 62
1
100
AcDbLine
 10
1.368920
 20
2.067651
 30
0.0
 11
1.385586
 21
2.073207
 31
0.0
  0
LINE
  5
21a
100
AcDbEntity
  8
Etch
 62
1
100
AcDbLine
 10
1.385586
 20
2.073207
 30
0.0
 11
1.396697
 21
2.084318
 31
0.0
  0
LINE
  5
21b
100
AcDbEntity
  8
Etch
 62
1
100
AcDbLine
 10
1.396697
 20
2.084318
 30
0.0
 11
1.402253
 21
2.100984
 31
0.0
  0
LINE
  5
21c
100
AcDbEntity
  8
Etch
 62
1
100
AcDbLine
 10
1.402253
 20
2.100984
 30
0.0
 11
1.402253
 21
2.106540
 31
0.0
  0
LINE
  5
21d
100
AcDbEntity
  8
Etch
 62
1
100
AcDbLine
 10
1.402253
 20
2.106540
 30
0.0
 11
1.396697
 21
2.123207
 31
0.0
  0
LINE
  5
21e
100
AcDbEntity
  8
Etch
 62
1
100
AcDbLine
 10
1.396697
 20
2.123207
 30
0.0
 11
1.385586
 21
2.134318
 31
0.0
  0
LINE
  5
21f
100
AcDbEntity
  8
Etch
 62
1
100
AcDbLine
 10
1.385586
 20
2.134318
 30
0.0
 11
1.368920
 21
2.139873
 31
0.0
  0
LINE
  5
220
100
AcDbEntity
  8
Etch
 62
1
100
AcDbLine
 10
1.368920
 20
2.139873
 30
0.0
 11
1.363364
 21
2.139873
 31
0.0
  0
LINE
  5
221
100
AcDbEntity
  8
Etch
 62
1
100
AcDbLine
 10
1.363364
 20
2.139873
 30
0.0
 11
1.346697
 21
2.134318
 31
0.0
  0
LINE
  5
222
100
AcDbEntity
  8
Etch
 62
1
100
AcDbLine
 10
1.346697
 20
2.134318
 30
0.0
 11
1.335586
 21
2.123207
 31
0.0
  0
LINE
  5
223
100
AcDbEntity
  8
Etch
 62
1
100
AcDbLine
 10
1.335586
 20
2.123207
 30
0.0
 11
1.330031
 21
2.106540
 31
0.0
  0
LINE
  5
224
100
AcDbEntity
  8
Etch
 62
1
100
AcDbLine
 10
0.143934
 20
2.183526
 30
0.0
 11
0.088379
 21
2.066859
 31
0.0
  0
LINE
  5
225
100
AcDbEntity
  8
Etch
 62
1
100
AcDbLine
 10
0.066156
 20
2.183526
 30
0.0
 11
0.143934
 21
2.183526
 31
0.0
  0
LINE
  5
226
100
AcDbEntity
  8
Etch
 62
1
100
AcDbLine
 10
1.355031
 20
2.853609
 30
0.0
 11
1.338364
 21
2.848053
 31
0.0
  0
LINE
  5
227
100
AcDbEntity
  8
Etch
 62
1
100
AcDbLine
 10
1.338364
 20
2.848053
 30
0.0
 11
1.332808
 21
2.836942
 31
0.0
  0
LINE
  5
228
100
AcDbEntity
  8
Etch
 62
1
100
AcDbLine
 10
1.332808
 20
2.836942
 30
0.0
 11
1.332808
 21
2.825831
 31
0.0
  0
LINE
  5
229
100
AcDbEntity
  8
Etch
 62
1
100
AcDbLine
 10
1.332808
 20
2.825831
 30
0.0
 11
1.338364
 21
2.814720
 31
0.0
  0
LINE
  5
22a
100
AcDbEntity
  8
Etch
 62
1
100
AcDbLine
 10
1.338364
 20
2.814720
 30
0.0
 11
1.349475
 21
2.809165
 31
0.0
  0
LINE
  5
22b
100
AcDbEntity
  8
Etch
 62
1
100
AcDbLine
 10
1.349475
 20
2.809165
 30
0.0
 11
1.371697
 21
2.803609
 31
0.0
  0
LINE
  5
22c
100
AcDbEntity
  8
Etch
 62
1
100
AcDbLine
 10
1.371697
 20
2.803609
 30
0.0
 11
1.388364
 21
2.798053
 31
0.0
  0
LINE
  5
22d
100
AcDbEntity
  8
Etch
 62
1
100
AcDbLine
 10
1.388364
 20
2.798053
 30
0.0
 11
1.399475
 21
2.786942
 31
0.0
  0
LINE
  5
22e
100
AcDbEntity
  8
Etch
 62
1
100
AcDbLine
 10
1.399475
 20
2.786942
 30
0.0
 11
1.405031
 21
2.775831
 31
0.0
  0
LINE
  5
22f
100
AcDbEntity
  8
Etch
 62
1
100
AcDbLine
 10
1.405031
 20
2.775831
 30
0.0
 11
1.405031
 21
2.759165
 31
0.0
  0
LINE
  5
230
100
AcDbEntity
  8
Etch
 62
1
100
AcDbLine
 10
1.405031
 20
2.759165
 30
0.0
 11
1.399475
 21
2.748053
 31
0.0
  0
LINE
  5
231
100
AcDbEntity
  8
Etch
 62
1
100
AcDbLine
 10
1.399475
 20
2.748053
 30
0.0
 11
1.393920
 21
2.742498
 31
0.0
  0
LINE
  5
232
100
AcDbEntity
  8
Etch
 62
1
100
AcDbLine
 10
1.393920
 20
2.742498
 30
0.0
 11
1.377253
 21
2.736942
 31
0.0
  0
LINE
  5
233
100
AcDbEntity
  8
Etch
 62
1
100
AcDbLine
 10
1.377253
 20
2.736942
 30
0.0
 11
1.355031
 21
2.736942
 31
0.0
  0
LINE
  5
234
100
AcDbEntity
  8
Etch
 62
1
100
AcDbLine
 10
1.355031
 20
2.736942
 30
0.0
 11
1.338364
 21
2.742498
 31
0.0
  0
LINE
  5
235
100
AcDbEntity
  8
Etch
 62
1
100
AcDbLine
 10
1.338364
 20
2.742498
 30
0.0
 11
1.332808
 21
2.748053
 31
0.0
  0
LINE
  5
236
100
AcDbEntity
  8
Etch
 62
1
100
AcDbLine
 10
1.332808
 20
2.748053
 30
0.0
 11
1.327253
 21
2.759165
 31
0.0
  0
LINE
  5
237
100
AcDbEntity
  8
Etch
 62
1
100
AcDbLine
 10
1.327253
 20
2.759165
 30
0.0
 11
1.327253
 21
2.775831
 31
0.0
  0
LINE
  5
238
100
AcDbEntity
  8
Etch
 62
1
100
AcDbLine
 10
1.327253
 20
2.775831
 30
0.0
 11
1.332808
 21
2.786942
 31
0.0
  0
LINE
  5
239
100
AcDbEntity
  8
Etch
 62
1
100
AcDbLine
 10
1.332808
 20
2.786942
 30
0.0
 11
1.343920
 21
2.798053
 31
0.0
  0
LINE
  5
23a
100
AcDbEntity
  8
Etch
 62
1
100
AcDbLine
 10
1.343920
 20
2.798053
 30
0.0
 11
1.360586
 21
2.803609
 31
0.0
  0
LINE
  5
23b
100
AcDbEntity
  8
Etch
 62
1
100
AcDbLine
 10
1.360586
 20
2.803609
 30
0.0
 11
1.382808
 21
2.809165
 31
0.0
  0
LINE
  5
23c
100
AcDbEntity
  8
Etch
 62
1
100
AcDbLine
 10
1.382808
 20
2.809165
 30
0.0
 11
1.393920
 21
2.814720
 31
0.0
  0
LINE
  5
23d
100
AcDbEntity
  8
Etch
 62
1
100
AcDbLine
 10
1.393920
 20
2.814720
 30
0.0
 11
1.399475
 21
2.825831
 31
0.0
  0
LINE
  5
23e
100
AcDbEntity
  8
Etch
 62
1
100
AcDbLine
 10
1.399475
 20
2.825831
 30
0.0
 11
1.399475
 21
2.836942
 31
0.0
  0
LINE
  5
23f
100
AcDbEntity
  8
Etch
 62
1
100
AcDbLine
 10
1.399475
 20
2.836942
 30
0.0
 11
1.393920
 21
2.848053
 31
0.0
  0
LINE
  5
240
100
AcDbEntity
  8
Etch
 62
1
100
AcDbLine
 10
1.393920
 20
2.848053
 30
0.0
 11
1.377253
 21
2.853609
 31
0.0
  0
LINE
  5
241
100
AcDbEntity
  8
Etch
 62
1
100
AcDbLine
 10
1.377253
 20
2.853609
 30
0.0
 11
1.355031
 21
2.853609
 31
0.0
  0
LINE
  5
242
100
AcDbEntity
  8
Etch
 62
1
100
AcDbLine
 10
0.142410
 20
2.814720
 30
0.0
 11
0.136855
 21
2.798053
 31
0.0
  0
LINE
  5
243
100
AcDbEntity
  8
Etch
 62
1
100
AcDbLine
 10
0.136855
 20
2.798053
 30
0.0
 11
0.125744
 21
2.786942
 31
0.0
  0
LINE
  5
244
100
AcDbEntity
  8
Etch
 62
1
100
AcDbLine
 10
0.125744
 20
2.786942
 30
0.0
 11
0.109077
 21
2.781387
 31
0.0
  0
LINE
  5
245
100
AcDbEntity
  8
Etch
 62
1
100
AcDbLine
 10
0.109077
 20
2.781387
 30
0.0
 11
0.103521
 21
2.781387
 31
0.0
  0
LINE
  5
246
100
AcDbEntity
  8
Etch
 62
1
100
AcDbLine
 10
0.103521
 20
2.781387
 30
0.0
 11
0.086855
 21
2.786942
 31
0.0
  0
LINE
  5
247
100
AcDbEntity
  8
Etch
 62
1
100
AcDbLine
 10
0.086855
 20
2.786942
 30
0.0
 11
0.075744
 21
2.798053
 31
0.0
  0
LINE
  5
248
100
AcDbEntity
  8
Etch
 62
1
100
AcDbLine
 10
0.075744
 20
2.798053
 30
0.0
 11
0.070188
 21
2.814720
 31
0.0
  0
LINE
  5
249
100
AcDbEntity
  8
Etch
 62
1
100
AcDbLine
 10
0.070188
 20
2.814720
 30
0.0
 11
0.070188
 21
2.820276
 31
0.0
  0
LINE
  5
24a
100
AcDbEntity
  8
Etch
 62
1
100
AcDbLine
 10
0.070188
 20
2.820276
 30
0.0
 11
0.075744
 21
2.836942
 31
0.0
  0
LINE
  5
24b
100
AcDbEntity
  8
Etch
 62
1
100
AcDbLine
 10
0.075744
 20
2.836942
 30
0.0
 11
0.086855
 21
2.848053
 31
0.0
  0
LINE
  5
24c
100
AcDbEntity
  8
Etch
 62
1
100
AcDbLine
 10
0.086855
 20
2.848053
 30
0.0
 11
0.103521
 21
2.853609
 31
0.0
  0
LINE
  5
24d
100
AcDbEntity
  8
Etch
 62
1
100
AcDbLine
 10
0.103521
 20
2.853609
 30
0.0
 11
0.109077
 21
2.853609
 31
0.0
  0
LINE
  5
24e
100
AcDbEntity
  8
Etch
 62
1
100
AcDbLine
 10
0.109077
 20
2.853609
 30
0.0
 11
0.125744
 21
2.848053
 31
0.0
  0
LINE
  5
24f
100
AcDbEntity
  8
Etch
 62
1
100
AcDbLine
 10
0.125744
 20
2.848053
 30
0.0
 11
0.136855
 21
2.836942
 31
0.0
  0
LINE
  5
250
100
AcDbEntity
  8
Etch
 62
1
100
AcDbLine
 10
0.136855
 20
2.836942
 30
0.0
 11
0.142410
 21
2.814720
 31
0.0
  0
LINE
  5
251
100
AcDbEntity
  8
Etch
 62
1
100
AcDbLine
 10
0.142410
 20
2.814720
 30
0.0
 11
0.142410
 21
2.786942
 31
0.0
  0
LINE
  5
252
100
AcDbEntity
  8
Etch
 62
1
100
AcDbLine
 10
0.142410
 20
2.786942
 30
0.0
 11
0.136855
 21
2.759165
 31
0.0
  0
LINE
  5
253
100
AcDbEntity
  8
Etch
 62
1
100
AcDbLine
 10
0.136855
 20
2.759165
 30
0.0
 11
0.125744
 21
2.742498
 31
0.0
  0
LINE
  5
254
100
AcDbEntity
  8
Etch
 62
1
100
AcDbLine
 10
0.125744
 20
2.742498
 30
0.0
 11
0.109077
 21
2.736942
 31
0.0
  0
LINE
  5
255
100
AcDbEntity
  8
Etch
 62
1
100
AcDbLine
 10
0.109077
 20
2.736942
 30
0.0
 11
0.097966
 21
2.736942
 31
0.0
  0
LINE
  5
256
100
AcDbEntity
  8
Etch
 62
1
100
AcDbLine
 10
0.097966
 20
2.736942
 30
0.0
 11
0.081299
 21
2.742498
 31
0.0
  0
LINE
  5
257
100
AcDbEntity
  8
Etch
 62
1
100
AcDbLine
 10
0.081299
 20
2.742498
 30
0.0
 11
0.075744
 21
2.753609
 31
0.0
  0
LINE
  5
258
100
AcDbEntity
  8
Etch
 62
1
100
AcDbLine
 10
1.360594
 20
0.176448
 30
0.0
 11
1.343927
 21
0.170892
 31
0.0
  0
LINE
  5
259
100
AcDbEntity
  8
Etch
 62
1
100
AcDbLine
 10
1.343927
 20
0.170892
 30
0.0
 11
1.332816
 21
0.154226
 31
0.0
  0
LINE
  5
25a
100
AcDbEntity
  8
Etch
 62
1
100
AcDbLine
 10
1.332816
 20
0.154226
 30
0.0
 11
1.327261
 21
0.126448
 31
0.0
  0
LINE
  5
25b
100
AcDbEntity
  8
Etch
 62
1
100
AcDbLine
 10
1.327261
 20
0.126448
 30
0.0
 11
1.327261
 21
0.109781
 31
0.0
  0
LINE
  5
25c
100
AcDbEntity
  8
Etch
 62
1
100
AcDbLine
 10
1.327261
 20
0.109781
 30
0.0
 11
1.332816
 21
0.082003
 31
0.0
  0
LINE
  5
25d
100
AcDbEntity
  8
Etch
 62
1
100
AcDbLine
 10
1.332816
 20
0.082003
 30
0.0
 11
1.343927
 21
0.065337
 31
0.0
  0
LINE
  5
25e
100
AcDbEntity
  8
Etch
 62
1
100
AcDbLine
 10
1.343927
 20
0.065337
 30
0.0
 11
1.360594
 21
0.059781
 31
0.0
  0
LINE
  5
25f
100
AcDbEntity
  8
Etch
 62
1
100
AcDbLine
 10
1.360594
 20
0.059781
 30
0.0
 11
1.371705
 21
0.059781
 31
0.0
  0
LINE
  5
260
100
AcDbEntity
  8
Etch
 62
1
100
AcDbLine
 10
1.371705
 20
0.059781
 30
0.0
 11
1.388372
 21
0.065337
 31
0.0
  0
LINE
  5
261
100
AcDbEntity
  8
Etch
 62
1
100
AcDbLine
 10
1.388372
 20
0.065337
 30
0.0
 11
1.399483
 21
0.082003
 31
0.0
  0
LINE
  5
262
100
AcDbEntity
  8
Etch
 62
1
100
AcDbLine
 10
1.399483
 20
0.082003
 30
0.0
 11
1.405038
 21
0.109781
 31
0.0
  0
LINE
  5
263
100
AcDbEntity
  8
Etch
 62
1
100
AcDbLine
 10
1.405038
 20
0.109781
 30
0.0
 11
1.405038
 21
0.126448
 31
0.0
  0
LINE
  5
264
100
AcDbEntity
  8
Etch
 62
1
100
AcDbLine
 10
1.405038
 20
0.126448
 30
0.0
 11
1.399483
 21
0.154226
 31
0.0
  0
LINE
  5
265
100
AcDbEntity
  8
Etch
 62
1
100
AcDbLine
 10
1.399483
 20
0.154226
 30
0.0
 11
1.388372
 21
0.170892
 31
0.0
  0
LINE
  5
266
100
AcDbEntity
  8
Etch
 62
1
100
AcDbLine
 10
1.388372
 20
0.170892
 30
0.0
 11
1.371705
 21
0.176448
 31
0.0
  0
LINE
  5
267
100
AcDbEntity
  8
Etch
 62
1
100
AcDbLine
 10
1.371705
 20
0.176448
 30
0.0
 11
1.360594
 21
0.176448
 31
0.0
  0
ENDSEC
  0
SECTION
  2
OBJECTS
  0
DICTIONARY
  5
C
330
0
100
AcDbDictionary
  3
ACAD_GROUP
350
D
  3
ACAD_MLINESTYLE
350
17
  0
DICTIONARY
  5
D
330
C
100
AcDbDictionary
  0
DICTIONARY
  5
1A
330
C
100
AcDbDictionary
  0
DICTIONARY
  5
17
330
C
100
AcDbDictionary
  3
STANDARD
350
18
  0
DICTIONARY
  5
19
330
C
100
AcDbDictionary
  0
ENDSEC
  0
EOF
